<?xml version="1.0" encoding="UTF-8" standalone="no"?>
<!-- Created with Inkscape (http://www.inkscape.org/) -->

<svg
   xmlns:dc="http://purl.org/dc/elements/1.1/"
   xmlns:cc="http://creativecommons.org/ns#"
   xmlns:rdf="http://www.w3.org/1999/02/22-rdf-syntax-ns#"
   xmlns:svg="http://www.w3.org/2000/svg"
   xmlns="http://www.w3.org/2000/svg"
   xmlns:sodipodi="http://sodipodi.sourceforge.net/DTD/sodipodi-0.dtd"
   xmlns:inkscape="http://www.inkscape.org/namespaces/inkscape"
   width="879.65625"
   height="455.6875"
   id="svg2"
   version="1.1"
   inkscape:version="0.48.4 r9939"
   sodipodi:docname="Middle-v0.2-6mm.svg">
  <defs
     id="defs4" />
  <sodipodi:namedview
     id="base"
     pagecolor="#ffffff"
     bordercolor="#666666"
     borderopacity="1.0"
     inkscape:pageopacity="0.0"
     inkscape:pageshadow="2"
     inkscape:zoom="0.79"
     inkscape:cx="379.59427"
     inkscape:cy="108.39205"
     inkscape:document-units="px"
     inkscape:current-layer="layer1"
     showgrid="false"
     showguides="true"
     inkscape:guide-bbox="true"
     inkscape:snap-object-midpoints="true"
     inkscape:object-nodes="true"
     inkscape:snap-nodes="true"
     inkscape:object-paths="true"
     inkscape:snap-intersection-paths="true"
     inkscape:snap-center="true"
     inkscape:window-width="1366"
     inkscape:window-height="733"
     inkscape:window-x="0"
     inkscape:window-y="0"
     inkscape:window-maximized="1"
     inkscape:snap-midpoints="true"
     units="mm"
     fit-margin-top="0"
     fit-margin-left="0"
     fit-margin-right="0"
     fit-margin-bottom="0" />
  <metadata
     id="metadata7">
    <rdf:RDF>
      <cc:Work
         rdf:about="">
        <dc:format>image/svg+xml</dc:format>
        <dc:type
           rdf:resource="http://purl.org/dc/dcmitype/StillImage" />
        <dc:title />
      </cc:Work>
    </rdf:RDF>
  </metadata>
  <g
     inkscape:label="Calque 1"
     inkscape:groupmode="layer"
     id="layer1"
     transform="translate(-3.184394,-563.63339)">
    <path
       style="color:#000000;fill:none;fill-opacity:0.51037345999999995;stroke:#0000ff;stroke-width:0.01000000000000000;stroke-linecap:butt;stroke-linejoin:miter;stroke-miterlimit:4;stroke-opacity:1;stroke-dasharray:none;stroke-dashoffset:0;marker:none;visibility:visible;display:inline;overflow:visible;enable-background:accumulate"
       d="M 365.78125,0.09375 C 358.83823,0.09375 353.375,5.5922 353.375,12.5 l 0,128.5 c 0,8.38607 -6.59906,15.84375 -15.8125,15.84375 l -65.21875,0 c -6.59213,0 -15.09375,-6.04759 -15.09375,-14.375 l 0,-10.6875 c 0,-13.35004 -9.1612,-22.71875 -21.25,-22.71875 l -141.71875,0 C 82.940368,109.0625 73,119.17817 73,131.125 l 0,194.3125 c 0,12.6982 9.034105,20.90625 21.28125,20.90625 l 141.71875,0 c 12.10844,0 21.25,-9.93704 21.25,-21.375 l 0,-9.34375 c 0,-9.91982 8.77664,-17.0625 16.90625,-17.0625 l 63.6875,0 c 8.67218,0 15.53125,7.02726 15.53125,15.53125 l 0,129.28125 c 0,7.1419 5.45014,12.40625 12.40625,12.40625 l 294.09375,0 c 6.30046,0 12.40625,-5.34105 12.40625,-12.40625 l 0,-129.28125 c 0,-8.50399 6.85907,-15.53125 15.53125,-15.53125 l 63.6875,0 c 8.12961,0 16.90625,7.14268 16.90625,17.0625 l 0,9.34375 c 0,11.43796 9.14156,21.375 21.25,21.375 l 141.71875,0 c 12.24715,0 21.28125,-8.20805 21.28125,-20.90625 l 0,-194.3125 c 0,-11.94683 -9.94036,-22.0625 -21.28125,-22.0625 l -141.71875,0 c -12.0888,0 -21.25,9.36871 -21.25,22.71875 l 0,10.6875 c 0,8.32741 -8.50162,14.375 -15.09375,14.375 l -65.21875,0 c -9.21344,0 -15.8125,-7.45768 -15.8125,-15.84375 l 0,-128.5 c 0,-7.67824 -5.63752,-12.40625 -12.40625,-12.40625 l -129.625,0 c -1.35642,0.09688725 -6.78125,0.89296625 -6.78125,7.09375 0,0 -5.8e-4,54.518 0,54.5625 0.0898,6.89211 7.0625,6.96875 7.0625,6.96875 l 16.34375,0 c 0,0 12.40627,-0.07266 12.40625,12.40625 C 559.28123,93.60392 546.875,93.5 546.875,93.5 l -68,0 c 0,0 -12.40625,0.26282 -12.40625,-12.375 0,-12.63782 12.40625,-12.40625 12.40625,-12.40625 l 16.21875,0 c 0,0 7.01575,0.16524 7.09375,-6.96875 4.3e-4,-0.03982 0,-54.5625 0,-54.5625 -0.0253,-6.20078375 -5.45568,-6.99686275 -6.8125,-7.09375 l -129.59375,0 z m 44.75,12.09375 c 19.55664,0 35.41982,15.849619 35.4375,35.40625 l 0,0.03125 c 0,19.569147 -15.86835,35.4375 -35.4375,35.4375 -19.56915,0 -35.4375,-15.868353 -35.4375,-35.4375 0,-19.569136 15.86835,-35.4375 35.4375,-35.4375 z m 204.59375,0 c 19.55664,0 35.41982,15.849619 35.4375,35.40625 l 0,0.03125 c 0,19.569147 -15.86835,35.4375 -35.4375,35.4375 -19.56915,0 -35.4375,-15.868353 -35.4375,-35.4375 0,-19.569136 15.86835,-35.4375 35.4375,-35.4375 z M 371.59375,85.59375 c 4.1069,0 7.43379,3.330606 7.4375,7.4375 l 0,0.03125 c 0,4.10952 -3.32798,7.4375 -7.4375,7.4375 -4.10952,0 -7.4375,-3.32798 -7.4375,-7.4375 0,-4.10952 3.32798,-7.46875 7.4375,-7.46875 z m 283.46875,0 c 4.1069,0 7.43379,3.330606 7.4375,7.4375 l 0,0.03125 c 0,4.10952 -3.32798,7.4375 -7.4375,7.4375 -4.10952,0 -7.4375,-3.32798 -7.4375,-7.4375 0,-4.10952 3.32798,-7.46875 7.4375,-7.46875 z m -219.75,10.5 c 3.42242,0 6.18441,2.765088 6.1875,6.1875 0,3.4246 -2.7629,6.1875 -6.1875,6.1875 -3.4246,0 -6.21875,-2.7629 -6.21875,-6.1875 0,-3.4246 2.79415,-6.1875 6.21875,-6.1875 z m -73.15625,11.21875 6.875,0 0,21.0625 -6.875,0 0,-21.0625 z m 12,0 6.875,0 0,21.0625 -6.875,0 0,-21.0625 z m 271.46875,0 6.875,0 0,21.0625 -6.875,0 0,-21.0625 z m 12,0 6.875,0 0,21.0625 -6.875,0 0,-21.0625 z m -531.46875,10.53125 c 3.91133,0 7.09022,3.18242 7.09375,7.09375 0,3.91382 -3.17993,7.09375 -7.09375,7.09375 -3.91383,0 -7.09375,-3.17993 -7.09375,-7.09375 0,-3.91383 3.17992,-7.09375 7.09375,-7.09375 z m 86.8125,0 c 3.91133,0 7.09022,3.18242 7.09375,7.09375 0,3.91382 -3.17993,7.09375 -7.09375,7.09375 -3.91383,0 -7.09375,-3.17993 -7.09375,-7.09375 0,-3.91383 3.17992,-7.09375 7.09375,-7.09375 z m 599.71875,0 c 3.91383,0 7.09375,3.17992 7.09375,7.09375 0,3.91382 -3.17992,7.09375 -7.09375,7.09375 -3.91382,0 -7.09375,-3.17993 -7.09375,-7.09375 0.004,-3.91133 3.18242,-7.09375 7.09375,-7.09375 z m 86.8125,0 c 3.91383,0 7.09375,3.17992 7.09375,7.09375 0,3.91382 -3.17992,7.09375 -7.09375,7.09375 -3.91382,0 -7.09375,-3.17993 -7.09375,-7.09375 0.004,-3.91133 3.18242,-7.09375 7.09375,-7.09375 z m -528.90625,24.375 4.875,4.84375 -14.90625,14.90625 -4.84375,-4.875 14.875,-14.875 z m 283.46875,0 14.875,14.875 -4.875,4.875 -14.875,-14.90625 4.875,-4.84375 z m -218.75,9.125 c 3.42242,0 6.18441,2.79634 6.1875,6.21875 0,3.4246 -2.7629,6.1875 -6.1875,6.1875 -3.4246,0 -6.21875,-2.7629 -6.21875,-6.1875 0,-3.4246 2.79415,-6.21875 6.21875,-6.21875 z m -52.6875,3.25 4.84375,4.84375 -14.875,14.90625 -4.875,-4.875 14.90625,-14.875 z m 259.40625,0 14.875,14.875 -4.84375,4.875 -14.875,-14.90625 4.84375,-4.84375 z m 12.4375,35.15625 c 3.42242,0 6.21566,2.76509 6.21875,6.1875 0,3.4246 -2.79415,6.21875 -6.21875,6.21875 -3.4246,0 -6.1875,-2.79415 -6.1875,-6.21875 0,-3.4246 2.7629,-6.1875 6.1875,-6.1875 z m -257.4375,22.4375 c 3.42242,0 6.18441,2.76509 6.1875,6.1875 0,3.4246 -2.7629,6.1875 -6.1875,6.1875 -3.4246,0 -6.1875,-2.7629 -6.1875,-6.1875 0,-3.4246 2.7629,-6.1875 6.1875,-6.1875 z m -64.90625,2.0625 21.0625,0 0,6.875 -21.0625,0 0,-6.875 z m 340.15625,0 21.03125,0 0,6.875 -21.03125,0 0,-6.875 z M 568.875,215.71875 c 3.42242,0 6.21566,2.76509 6.21875,6.1875 0,3.4246 -2.79415,6.21875 -6.21875,6.21875 -3.4246,0 -6.1875,-2.79415 -6.1875,-6.21875 0,-3.4246 2.7629,-6.1875 6.1875,-6.1875 z m -236.75,18.53125 21.0625,0 0,6.875 -21.0625,0 0,-6.875 z m 340.15625,0 21.03125,0 0,6.875 -21.03125,0 0,-6.875 z M 596,298.875 c 3.42242,0 6.21566,2.76509 6.21875,6.1875 l 0,0.0312 c 0,3.4246 -2.79415,6.1875 -6.21875,6.1875 -3.4246,0 -6.1875,-2.7629 -6.1875,-6.1875 0,-3.4246 2.7629,-6.21875 6.1875,-6.21875 z m -469.84375,24.5 c 3.91133,0 7.09022,3.15117 7.09375,7.0625 0,3.91382 -3.17993,7.09375 -7.09375,7.09375 -3.91383,0 -7.09375,-3.17993 -7.09375,-7.09375 0,-3.91383 3.17992,-7.0625 7.09375,-7.0625 z m 86.8125,0 c 3.91133,0 7.09022,3.15117 7.09375,7.0625 0,3.91382 -3.17993,7.09375 -7.09375,7.09375 -3.91383,0 -7.09375,-3.17993 -7.09375,-7.09375 0,-3.91383 3.17992,-7.0625 7.09375,-7.0625 z m 599.71875,0 c 3.91383,0 7.09375,3.14867 7.09375,7.0625 0,3.91382 -3.17992,7.09375 -7.09375,7.09375 -3.91382,0 -7.09375,-3.17993 -7.09375,-7.09375 0.004,-3.91133 3.18242,-7.0625 7.09375,-7.0625 z m 86.8125,0 c 3.91383,0 7.09375,3.14867 7.09375,7.0625 0,3.91382 -3.17992,7.09375 -7.09375,7.09375 -3.91382,0 -7.09375,-3.17993 -7.09375,-7.09375 0.004,-3.91133 3.18242,-7.0625 7.09375,-7.0625 z m -528.90625,31.53125 c 4.1069,0 7.43379,3.33061 7.4375,7.4375 0,4.10952 -3.32798,7.4375 -7.4375,7.4375 -4.10952,0 -7.4375,-3.32798 -7.4375,-7.4375 0,-4.10952 3.32798,-7.4375 7.4375,-7.4375 z m 283.46875,0 c 4.1069,0 7.43379,3.33061 7.4375,7.4375 0,4.10952 -3.32798,7.4375 -7.4375,7.4375 -4.10952,0 -7.4375,-3.32798 -7.4375,-7.4375 0,-4.10952 3.32798,-7.4375 7.4375,-7.4375 z m -281.46875,16.875 14.875,14.875 -4.84375,4.875 -14.90625,-14.875 4.875,-4.875 z m 279.46875,0 4.84375,4.875 -14.875,14.875 -4.84375,-4.875 14.875,-14.875 z m -291.5,12.375 14.90625,14.875 -4.875,4.875 -14.875,-14.875 4.84375,-4.875 z m 303.5,0 4.875,4.875 -14.875,14.875 -4.875,-4.875 14.875,-14.875 z M 415.09375,398.375 c 3.42242,0 6.21566,2.76509 6.21875,6.1875 0,3.4246 -2.79415,6.21875 -6.21875,6.21875 -3.4246,0 -6.1875,-2.79415 -6.1875,-6.21875 0,-3.4246 2.7629,-6.1875 6.1875,-6.1875 z m 97.4375,0 c 3.42242,0 6.21566,2.76509 6.21875,6.1875 0,3.4246 -2.79415,6.21875 -6.21875,6.21875 -3.4246,0 -6.1875,-2.79415 -6.1875,-6.21875 0,-3.4246 2.7629,-6.1875 6.1875,-6.1875 z m -100.6875,21.96875 14.1875,0 0,14.1875 51.375,0 0,-10.65625 70.84375,0 0,10.65625 51.375,0 0,-14.1875 14.1875,0 0,14.1875 23.03125,0 0,10.625 -23.03125,0 0,3.53125 -14.1875,0 0,-3.53125 -173.59375,0 0,3.53125 -14.1875,0 0,-3.53125 -23.03125,0 0,-10.625 23.03125,0 0,-14.1875 z"
       transform="translate(-69.815606,563.53964)"
       id="path3960"
       inkscape:connector-curvature="0" />
    <flowRoot
       xml:space="preserve"
       id="flowRoot3842"
       style="font-size:40px;font-style:normal;font-weight:normal;line-height:125%;letter-spacing:0px;word-spacing:0px;fill:#000000;fill-opacity:1;stroke:none;font-family:Sans"><flowRegion
         id="flowRegion3844"><rect
           id="rect3846"
           width="137.57536"
           height="92.908035"
           x="758.45117"
           y="159.90903" /></flowRegion><flowPara
         id="flowPara3848" /></flowRoot>  </g>
</svg>
