<?xml version="1.0" encoding="UTF-8" standalone="no"?>
<!-- Created with Inkscape (http://www.inkscape.org/) -->

<svg
   xmlns:dc="http://purl.org/dc/elements/1.1/"
   xmlns:cc="http://creativecommons.org/ns#"
   xmlns:rdf="http://www.w3.org/1999/02/22-rdf-syntax-ns#"
   xmlns:svg="http://www.w3.org/2000/svg"
   xmlns="http://www.w3.org/2000/svg"
   xmlns:sodipodi="http://sodipodi.sourceforge.net/DTD/sodipodi-0.dtd"
   xmlns:inkscape="http://www.inkscape.org/namespaces/inkscape"
   width="1025.6577"
   height="455.77661"
   id="svg2"
   version="1.1"
   inkscape:version="0.48.4 r9939"
   sodipodi:docname="Middle-v0.1-6mm.svg">
  <defs
     id="defs4" />
  <sodipodi:namedview
     id="base"
     pagecolor="#ffffff"
     bordercolor="#666666"
     borderopacity="1.0"
     inkscape:pageopacity="0.0"
     inkscape:pageshadow="2"
     inkscape:zoom="0.79"
     inkscape:cx="698.68965"
     inkscape:cy="187.82878"
     inkscape:document-units="px"
     inkscape:current-layer="layer1"
     showgrid="false"
     showguides="true"
     inkscape:guide-bbox="true"
     inkscape:snap-object-midpoints="true"
     inkscape:object-nodes="true"
     inkscape:snap-nodes="true"
     inkscape:object-paths="true"
     inkscape:snap-intersection-paths="true"
     inkscape:snap-center="true"
     inkscape:window-width="1366"
     inkscape:window-height="733"
     inkscape:window-x="0"
     inkscape:window-y="0"
     inkscape:window-maximized="1"
     inkscape:snap-midpoints="true"
     units="mm"
     fit-margin-top="0"
     fit-margin-left="0"
     fit-margin-right="0"
     fit-margin-bottom="0" />
  <metadata
     id="metadata7">
    <rdf:RDF>
      <cc:Work
         rdf:about="">
        <dc:format>image/svg+xml</dc:format>
        <dc:type
           rdf:resource="http://purl.org/dc/dcmitype/StillImage" />
        <dc:title />
      </cc:Work>
    </rdf:RDF>
  </metadata>
  <g
     inkscape:label="Calque 1"
     inkscape:groupmode="layer"
     id="layer1"
     transform="translate(69.815606,-563.53964)">
    <rect
       style="opacity:0.98999999;fill:#81b0ba;fill-opacity:1;fill-rule:nonzero;stroke:none"
       id="rect3168"
       width="511.00601"
       height="141.73228"
       x="187.51024"
       y="720.36804" />
    <rect
       style="opacity:0.98999999;fill:#9da7ff;fill-opacity:1;fill-rule:nonzero;stroke:none"
       id="rect3885"
       width="255.1181"
       height="411.02362"
       x="315.45419"
       y="586.92102" />
    <rect
       style="opacity:0.98999999;fill:#97ec8a;fill-opacity:1;fill-rule:nonzero;stroke:none"
       id="rect3891"
       width="3.5433071"
       height="3.5433071"
       x="335.24908"
       y="994.513" />
    <rect
       style="opacity:0.98999999;fill:#9092ab;fill-opacity:1;fill-rule:nonzero;stroke:none"
       id="rect3883"
       width="318.89764"
       height="455.56299"
       x="283.56442"
       y="563.75323" />
    <rect
       style="opacity:0.98999999;fill:#97ec8a;fill-opacity:1;fill-rule:nonzero;stroke:none"
       id="rect3893"
       width="3.5433071"
       height="21.259842"
       x="329.74438"
       y="976.79657" />
    <flowRoot
       xml:space="preserve"
       id="flowRoot3842"
       style="font-size:40px;font-style:normal;font-weight:normal;line-height:125%;letter-spacing:0px;word-spacing:0px;fill:#000000;fill-opacity:1;stroke:none;font-family:Sans"><flowRegion
         id="flowRegion3844"><rect
           id="rect3846"
           width="137.57536"
           height="92.908035"
           x="758.45117"
           y="159.90903" /></flowRegion><flowPara
         id="flowPara3848" /></flowRoot>    <g
       id="g3895"
       transform="translate(-92.352084,-77.336434)">
      <rect
         style="opacity:0.98999999;fill:#aec5f2;fill-opacity:1;fill-rule:nonzero;stroke:none"
         id="rect3873"
         width="283.46457"
         height="269.29135"
         x="394.13812"
         y="733.92493" />
      <path
         sodipodi:type="arc"
         style="opacity:0.98999999;fill:#f375f3;fill-opacity:1;fill-rule:nonzero;stroke:none"
         id="path3875"
         sodipodi:cx="432.14285"
         sodipodi:cy="51.647896"
         sodipodi:rx="11.071428"
         sodipodi:ry="11.071428"
         d="m 443.21428,51.647896 c 0,6.114581 -4.95685,11.071428 -11.07143,11.071428 -6.11458,0 -11.07143,-4.956847 -11.07143,-11.071428 0,-6.114581 4.95685,-11.071428 11.07143,-11.071428 6.11068,0 11.06591,4.950752 11.07143,11.061425"
         sodipodi:start="0"
         sodipodi:end="6.2822818"
         sodipodi:open="true"
         transform="matrix(0.67208536,0,0,0.67208536,103.70123,699.21315)" />
      <path
         transform="matrix(0.67208536,0,0,0.67208536,387.1658,699.21315)"
         sodipodi:open="true"
         sodipodi:end="6.2822818"
         sodipodi:start="0"
         d="m 443.21428,51.647896 c 0,6.114581 -4.95685,11.071428 -11.07143,11.071428 -6.11458,0 -11.07143,-4.956847 -11.07143,-11.071428 0,-6.114581 4.95685,-11.071428 11.07143,-11.071428 6.11068,0 11.06591,4.950752 11.07143,11.061425"
         sodipodi:ry="11.071428"
         sodipodi:rx="11.071428"
         sodipodi:cy="51.647896"
         sodipodi:cx="432.14285"
         id="path3877"
         style="opacity:0.98999999;fill:#f375f3;fill-opacity:1;fill-rule:nonzero;stroke:none"
         sodipodi:type="arc" />
      <path
         transform="matrix(0.67208536,0,0,0.67208536,102.69108,968.50451)"
         sodipodi:open="true"
         sodipodi:end="6.2822818"
         sodipodi:start="0"
         d="m 443.21428,51.647896 c 0,6.114581 -4.95685,11.071428 -11.07143,11.071428 -6.11458,0 -11.07143,-4.956847 -11.07143,-11.071428 0,-6.114581 4.95685,-11.071428 11.07143,-11.071428 6.11068,0 11.06591,4.950752 11.07143,11.061425"
         sodipodi:ry="11.071428"
         sodipodi:rx="11.071428"
         sodipodi:cy="51.647896"
         sodipodi:cx="432.14285"
         id="path3879"
         style="opacity:0.98999999;fill:#f375f3;fill-opacity:1;fill-rule:nonzero;stroke:none"
         sodipodi:type="arc" />
      <path
         sodipodi:type="arc"
         style="opacity:0.98999999;fill:#f375f3;fill-opacity:1;fill-rule:nonzero;stroke:none"
         id="path3881"
         sodipodi:cx="432.14285"
         sodipodi:cy="51.647896"
         sodipodi:rx="11.071428"
         sodipodi:ry="11.071428"
         d="m 443.21428,51.647896 c 0,6.114581 -4.95685,11.071428 -11.07143,11.071428 -6.11458,0 -11.07143,-4.956847 -11.07143,-11.071428 0,-6.114581 4.95685,-11.071428 11.07143,-11.071428 6.11068,0 11.06591,4.950752 11.07143,11.061425"
         sodipodi:start="0"
         sodipodi:end="6.2822818"
         sodipodi:open="true"
         transform="matrix(0.67208536,0,0,0.67208536,386.15565,968.50451)" />
    </g>
    <rect
       style="opacity:0.98999999;fill:#f375f3;fill-opacity:1;fill-rule:nonzero;stroke:none"
       id="rect3022"
       width="56.692913"
       height="74.409447"
       x="318.71402"
       y="655.89899" />
    <rect
       style="opacity:0.98999999;fill:#d4ff45;fill-opacity:1;fill-rule:nonzero;stroke:none"
       id="rect3902"
       width="187.79527"
       height="244.48819"
       x="318.71402"
       y="732.30841" />
    <rect
       style="opacity:0.98999999;fill:#97ec8a;fill-opacity:1;fill-rule:nonzero;stroke:none"
       id="rect3887"
       width="3.5433071"
       height="10.629921"
       x="329.70578"
       y="1008.6863" />
    <rect
       style="opacity:0.98999999;fill:#97ec8a;fill-opacity:1;fill-rule:nonzero;stroke:none"
       id="rect3889"
       width="3.5433071"
       height="10.629921"
       x="331.70578"
       y="998.0564" />
    <g
       id="g3064"
       transform="translate(-92.857144,26.089286)">
      <rect
         y="537.53894"
         x="525.24048"
         height="14.173228"
         width="21.259842"
         id="rect3938"
         style="opacity:0.98999999;fill:#d4ff45;fill-opacity:1;fill-rule:nonzero;stroke:none" />
      <rect
         y="607.57361"
         x="489.50058"
         height="24.80315"
         width="92.739594"
         id="rect3940"
         style="opacity:0.98999999;fill:#d4ff45;fill-opacity:1;fill-rule:nonzero;stroke:none" />
      <rect
         y="537.53894"
         x="511.03833"
         height="14.173218"
         width="14.173228"
         id="rect3942"
         style="opacity:0.98999999;fill:#8ab300;fill-opacity:1;fill-rule:nonzero;stroke:none" />
      <rect
         style="opacity:0.98999999;fill:#8ab300;fill-opacity:1;fill-rule:nonzero;stroke:none"
         id="rect3944"
         width="14.173228"
         height="14.173218"
         x="546.50031"
         y="537.53894" />
      <rect
         y="607.57361"
         x="489.50058"
         height="24.803131"
         width="24.80315"
         id="rect3946"
         style="opacity:0.98999999;fill:#8ab300;fill-opacity:1;fill-rule:nonzero;stroke:none" />
      <rect
         style="opacity:0.98999999;fill:#8ab300;fill-opacity:1;fill-rule:nonzero;stroke:none"
         id="rect3948"
         width="24.80315"
         height="24.803131"
         x="557.43701"
         y="607.57361" />
      <path
         sodipodi:nodetypes="ccscczcczccscc"
         inkscape:connector-curvature="0"
         id="path3950"
         d="m 518.12494,537.53894 c 0,0 7.08661,0 7.11554,7.08661 0,0 -2.2e-4,54.52742 -6.5e-4,54.56724 -0.078,7.13399 -7.11489,6.96659 -7.11489,6.96659 l -16.19802,0 c 0,0 -12.40158,-0.23624 -12.40158,12.40158 0,12.63782 12.40158,12.40152 12.40158,12.40152 l 68.00289,0 c 0,0 12.40156,0.0774 12.40158,-12.40152 2e-5,-12.47891 -12.40158,-12.40158 -12.40158,-12.40158 l -16.3429,0 c 0,0 -6.99594,-0.0601 -7.08573,-6.95221 -5.8e-4,-0.0445 -8.7e-4,-54.58162 -8.7e-4,-54.58162 0,-7.08661 7.0866,-7.08661 7.0866,-7.08661"
         style="color:#000000;fill:none;stroke:#ffffff;stroke-width:0.17716534;stroke-linecap:butt;stroke-linejoin:miter;stroke-miterlimit:4;stroke-opacity:1;stroke-dasharray:none;stroke-dashoffset:0;marker:none;visibility:visible;display:inline;overflow:visible;enable-background:accumulate" />
    </g>
    <rect
       y="994.51312"
       x="577.65894"
       height="24.803131"
       width="24.80315"
       id="rect3956"
       style="opacity:0.98999999;fill:#8ab300;fill-opacity:1;fill-rule:nonzero;stroke:none" />
    <rect
       style="opacity:0.98999999;fill:#8ab300;fill-opacity:1;fill-rule:nonzero;stroke:none"
       id="rect3958"
       width="24.80315"
       height="24.803131"
       x="283.56442"
       y="994.51312" />
    <path
       style="color:#000000;fill:none;stroke:#ffffff;stroke-width:0.01;stroke-linecap:butt;stroke-linejoin:miter;stroke-miterlimit:4;stroke-opacity:1;stroke-dasharray:none;stroke-dashoffset:0;marker:none;visibility:visible;display:inline;overflow:visible;enable-background:accumulate"
       d="m 295.96601,563.62823 c 6.94302,0 287.32575,0 294.09448,0 6.76873,0 12.40158,4.72331 12.40158,12.40155 0,7.67824 0,423.81971 0,430.88492 0,7.0652 -6.10112,12.4015 -12.40158,12.4015 -6.30046,0 -287.13837,0 -294.09448,0 -6.95611,0 -12.40158,-5.2596 -12.40158,-12.4015 0,-7.14191 0,-423.97712 0,-430.88492 0,-6.9078 5.45856,-12.40155 12.40158,-12.40155 z"
       id="path3960"
       inkscape:connector-curvature="0"
       sodipodi:nodetypes="zzzzzzzzz" />
    <rect
       y="737.87451"
       x="517.34113"
       height="152.3622"
       width="74.409447"
       id="rect3800"
       style="opacity:0.98999999;fill:#f375f3;fill-opacity:1;fill-rule:nonzero;stroke:none" />
    <g
       id="g3162"
       transform="translate(-93.362224,-14.285714)">
      <path
         transform="matrix(1.1388621,0,0,1.1388621,-100.64101,145.27085)"
         sodipodi:open="true"
         sodipodi:end="6.2822818"
         sodipodi:start="0"
         d="m 500.63159,421.62292 c 0,17.18307 -13.92963,31.1127 -31.1127,31.1127 -17.18307,0 -31.1127,-13.92963 -31.1127,-31.1127 0,-17.18306 13.92963,-31.11269 31.1127,-31.11269 17.17209,0 31.09717,13.9125 31.11269,31.08458"
         sodipodi:ry="31.112698"
         sodipodi:rx="31.112698"
         sodipodi:cy="421.62292"
         sodipodi:cx="469.51889"
         id="path3149"
         style="opacity:0.98999999;fill:#f0f61f;fill-opacity:1;fill-rule:nonzero;stroke:none"
         sodipodi:type="arc" />
      <path
         sodipodi:type="arc"
         style="opacity:0.98999999;fill:#f0f61f;fill-opacity:1;fill-rule:nonzero;stroke:none"
         id="path3151"
         sodipodi:cx="469.51889"
         sodipodi:cy="421.62292"
         sodipodi:rx="31.112698"
         sodipodi:ry="31.112698"
         d="m 500.63159,421.62292 c 0,17.18307 -13.92963,31.1127 -31.1127,31.1127 -17.18307,0 -31.1127,-13.92963 -31.1127,-31.1127 0,-17.18306 13.92963,-31.11269 31.1127,-31.11269 17.17209,0 31.09717,13.9125 31.11269,31.08458"
         sodipodi:start="0"
         sodipodi:end="6.2822818"
         sodipodi:open="true"
         transform="matrix(1.1388621,0,0,1.1388621,103.95741,145.27079)" />
    </g>
    <rect
       y="998.0564"
       x="318.9975"
       height="10.629921"
       width="248.03149"
       id="rect2989-0"
       style="opacity:0.98999999;fill:#f6761f;fill-opacity:1;fill-rule:nonzero;stroke:none" />
    <g
       id="g3075"
       transform="translate(-106.47101,-14.285714)">
      <rect
         y="998.16882"
         x="448.5"
         height="28.346457"
         width="14.173228"
         id="rect3171"
         style="opacity:0.98999999;fill:#f0f61f;fill-opacity:1;fill-rule:nonzero;stroke:none" />
      <rect
         style="opacity:0.98999999;fill:#f0f61f;fill-opacity:1;fill-rule:nonzero;stroke:none"
         id="rect3073"
         width="14.173228"
         height="28.346457"
         x="636.29529"
         y="998.16882" />
    </g>
    <rect
       style="opacity:0.98999999;fill:#f0f61f;fill-opacity:1;fill-rule:nonzero;stroke:none"
       id="rect3153"
       width="70.866142"
       height="10.629921"
       x="407.58017"
       y="987.42651" />
    <path
       sodipodi:type="arc"
       style="opacity:0.98999999;fill:#3427ff;fill-opacity:1;fill-rule:nonzero;stroke:none"
       id="path3118"
       sodipodi:cx="432.14285"
       sodipodi:cy="51.647896"
       sodipodi:rx="11.071428"
       sodipodi:ry="11.071428"
       d="m 443.21428,51.647896 c 0,6.114581 -4.95685,11.071428 -11.07143,11.071428 -6.11458,0 -11.07143,-4.956847 -11.07143,-11.071428 0,-6.114581 4.95685,-11.071428 11.07143,-11.071428 6.11068,0 11.06591,4.950752 11.07143,11.061425"
       sodipodi:start="0"
       sodipodi:end="6.2822818"
       sodipodi:open="true"
       transform="matrix(0.56007113,0,0,0.56007113,342.6332,730.56217)" />
    <path
       transform="matrix(0.56007113,0,0,0.56007113,284.16863,839.69603)"
       sodipodi:open="true"
       sodipodi:end="6.2822818"
       sodipodi:start="0"
       d="m 443.21428,51.647896 c 0,6.114581 -4.95685,11.071428 -11.07143,11.071428 -6.11458,0 -11.07143,-4.956847 -11.07143,-11.071428 0,-6.114581 4.95685,-11.071428 11.07143,-11.071428 6.11068,0 11.06591,4.950752 11.07143,11.061425"
       sodipodi:ry="11.071428"
       sodipodi:rx="11.071428"
       sodipodi:cy="51.647896"
       sodipodi:cx="432.14285"
       id="path3989"
       style="opacity:0.98999999;fill:#3427ff;fill-opacity:1;fill-rule:nonzero;stroke:none"
       sodipodi:type="arc" />
    <path
       sodipodi:type="arc"
       style="opacity:0.98999999;fill:#3427ff;fill-opacity:1;fill-rule:nonzero;stroke:none"
       id="path4002"
       sodipodi:cx="432.14285"
       sodipodi:cy="51.647896"
       sodipodi:rx="11.071428"
       sodipodi:ry="11.071428"
       d="m 443.21428,51.647896 c 0,6.114581 -4.95685,11.071428 -11.07143,11.071428 -6.11458,0 -11.07143,-4.956847 -11.07143,-11.071428 0,-6.114581 4.95685,-11.071428 11.07143,-11.071428 6.11068,0 11.06591,4.950752 11.07143,11.061425"
       sodipodi:start="0"
       sodipodi:end="6.2822818"
       sodipodi:open="true"
       transform="matrix(0.56007113,0,0,0.56007113,123.45493,692.16932)" />
    <path
       transform="matrix(0.56007113,0,0,0.56007113,123.45493,636.89375)"
       sodipodi:open="true"
       sodipodi:end="6.2822818"
       sodipodi:start="0"
       d="m 443.21428,51.647896 c 0,6.114581 -4.95685,11.071428 -11.07143,11.071428 -6.11458,0 -11.07143,-4.956847 -11.07143,-11.071428 0,-6.114581 4.95685,-11.071428 11.07143,-11.071428 6.11068,0 11.06591,4.950752 11.07143,11.061425"
       sodipodi:ry="11.071428"
       sodipodi:rx="11.071428"
       sodipodi:cy="51.647896"
       sodipodi:cx="432.14285"
       id="path4004"
       style="opacity:0.98999999;fill:#3427ff;fill-opacity:1;fill-rule:nonzero;stroke:none"
       sodipodi:type="arc" />
    <path
       transform="matrix(0.56007113,0,0,0.56007113,85.187221,752.98822)"
       sodipodi:open="true"
       sodipodi:end="6.2822818"
       sodipodi:start="0"
       d="m 443.21428,51.647896 c 0,6.114581 -4.95685,11.071428 -11.07143,11.071428 -6.11458,0 -11.07143,-4.956847 -11.07143,-11.071428 0,-6.114581 4.95685,-11.071428 11.07143,-11.071428 6.11068,0 11.06591,4.950752 11.07143,11.061425"
       sodipodi:ry="11.071428"
       sodipodi:rx="11.071428"
       sodipodi:cy="51.647896"
       sodipodi:cx="432.14285"
       id="path4006"
       style="opacity:0.98999999;fill:#3427ff;fill-opacity:1;fill-rule:nonzero;stroke:none"
       sodipodi:type="arc" />
    <path
       sodipodi:type="arc"
       style="opacity:0.98999999;fill:#3427ff;fill-opacity:1;fill-rule:nonzero;stroke:none"
       id="path4008"
       sodipodi:cx="432.14285"
       sodipodi:cy="51.647896"
       sodipodi:rx="11.071428"
       sodipodi:ry="11.071428"
       d="m 443.21428,51.647896 c 0,6.114581 -4.95685,11.071428 -11.07143,11.071428 -6.11458,0 -11.07143,-4.956847 -11.07143,-11.071428 0,-6.114581 4.95685,-11.071428 11.07143,-11.071428 6.11068,0 11.06591,4.950752 11.07143,11.061425"
       sodipodi:start="0"
       sodipodi:end="6.2822818"
       sodipodi:open="true"
       transform="matrix(0.56007113,0,0,0.56007113,257.0376,756.53153)" />
    <path
       transform="matrix(0.56007113,0,0,0.56007113,200.69901,939.18904)"
       sodipodi:open="true"
       sodipodi:end="6.2822818"
       sodipodi:start="0"
       d="m 443.21428,51.647896 c 0,6.114581 -4.95685,11.071428 -11.07143,11.071428 -6.11458,0 -11.07143,-4.956847 -11.07143,-11.071428 0,-6.114581 4.95685,-11.071428 11.07143,-11.071428 6.11068,0 11.06591,4.950752 11.07143,11.061425"
       sodipodi:ry="11.071428"
       sodipodi:rx="11.071428"
       sodipodi:cy="51.647896"
       sodipodi:cx="432.14285"
       id="path4010"
       style="opacity:0.98999999;fill:#3427ff;fill-opacity:1;fill-rule:nonzero;stroke:none"
       sodipodi:type="arc" />
    <path
       sodipodi:type="arc"
       style="opacity:0.98999999;fill:#3427ff;fill-opacity:1;fill-rule:nonzero;stroke:none"
       id="path4012"
       sodipodi:cx="432.14285"
       sodipodi:cy="51.647896"
       sodipodi:rx="11.071428"
       sodipodi:ry="11.071428"
       d="m 443.21428,51.647896 c 0,6.114581 -4.95685,11.071428 -11.07143,11.071428 -6.11458,0 -11.07143,-4.956847 -11.07143,-11.071428 0,-6.114581 4.95685,-11.071428 11.07143,-11.071428 6.11068,0 11.06591,4.950752 11.07143,11.061425"
       sodipodi:start="0"
       sodipodi:end="6.2822818"
       sodipodi:open="true"
       transform="matrix(0.56007113,0,0,0.56007113,103.25809,939.18904)" />
    <g
       id="g4048"
       transform="translate(10.558063,3.4416262)">
      <rect
         style="fill:#4f4f4f;fill-opacity:1;fill-rule:nonzero;stroke:#4f4f4f;stroke-width:0.21127194;stroke-linecap:round;stroke-linejoin:round;stroke-miterlimit:4;stroke-opacity:1;stroke-dasharray:none;stroke-dashoffset:0"
         id="rect4020"
         width="21.048571"
         height="6.8753424"
         x="254.6976"
         y="-1070.054"
         transform="matrix(-0.70710678,0.70710678,-0.70710678,-0.70710678,0,0)" />
      <rect
         transform="matrix(-0.70710678,0.70710678,-0.70710678,-0.70710678,0,0)"
         y="-1087.304"
         x="254.9476"
         height="6.8753424"
         width="21.048571"
         id="rect4046"
         style="fill:#4f4f4f;fill-opacity:1;fill-rule:nonzero;stroke:#4f4f4f;stroke-width:0.21127194;stroke-linecap:round;stroke-linejoin:round;stroke-miterlimit:4;stroke-opacity:1;stroke-dasharray:none;stroke-dashoffset:0" />
    </g>
    <g
       transform="matrix(-1,0,0,1,874.45827,3.4416262)"
       id="g4052">
      <rect
         transform="matrix(-0.70710678,0.70710678,-0.70710678,-0.70710678,0,0)"
         y="-1070.054"
         x="254.6976"
         height="6.8753424"
         width="21.048571"
         id="rect4054"
         style="fill:#4f4f4f;fill-opacity:1;fill-rule:nonzero;stroke:#4f4f4f;stroke-width:0.21127194;stroke-linecap:round;stroke-linejoin:round;stroke-miterlimit:4;stroke-opacity:1;stroke-dasharray:none;stroke-dashoffset:0" />
      <rect
         style="fill:#4f4f4f;fill-opacity:1;fill-rule:nonzero;stroke:#4f4f4f;stroke-width:0.21127194;stroke-linecap:round;stroke-linejoin:round;stroke-miterlimit:4;stroke-opacity:1;stroke-dasharray:none;stroke-dashoffset:0"
         id="rect4056"
         width="21.048571"
         height="6.8753424"
         x="254.9476"
         y="-1087.304"
         transform="matrix(-0.70710678,0.70710678,-0.70710678,-0.70710678,0,0)" />
    </g>
    <g
       id="g4058"
       transform="matrix(-1,0,0,1,1155.9217,-226.12426)">
      <rect
         style="fill:#4f4f4f;fill-opacity:1;fill-rule:nonzero;stroke:#4f4f4f;stroke-width:0.21127194;stroke-linecap:round;stroke-linejoin:round;stroke-miterlimit:4;stroke-opacity:1;stroke-dasharray:none;stroke-dashoffset:0"
         id="rect4060"
         width="21.048571"
         height="6.8753424"
         x="254.6976"
         y="-1070.054"
         transform="matrix(-0.70710678,0.70710678,-0.70710678,-0.70710678,0,0)" />
      <rect
         transform="matrix(-0.70710678,0.70710678,-0.70710678,-0.70710678,0,0)"
         y="-1087.304"
         x="254.9476"
         height="6.8753424"
         width="21.048571"
         id="rect4062"
         style="fill:#4f4f4f;fill-opacity:1;fill-rule:nonzero;stroke:#4f4f4f;stroke-width:0.21127194;stroke-linecap:round;stroke-linejoin:round;stroke-miterlimit:4;stroke-opacity:1;stroke-dasharray:none;stroke-dashoffset:0" />
    </g>
    <g
       id="g4064"
       transform="translate(-270.90537,-226.12427)">
      <rect
         style="fill:#4f4f4f;fill-opacity:1;fill-rule:nonzero;stroke:#4f4f4f;stroke-width:0.21127194;stroke-linecap:round;stroke-linejoin:round;stroke-miterlimit:4;stroke-opacity:1;stroke-dasharray:none;stroke-dashoffset:0"
         id="rect4066"
         width="21.048571"
         height="6.8753424"
         x="254.6976"
         y="-1070.054"
         transform="matrix(-0.70710678,0.70710678,-0.70710678,-0.70710678,0,0)" />
      <rect
         transform="matrix(-0.70710678,0.70710678,-0.70710678,-0.70710678,0,0)"
         y="-1087.304"
         x="254.9476"
         height="6.8753424"
         width="21.048571"
         id="rect4068"
         style="fill:#4f4f4f;fill-opacity:1;fill-rule:nonzero;stroke:#4f4f4f;stroke-width:0.21127194;stroke-linecap:round;stroke-linejoin:round;stroke-miterlimit:4;stroke-opacity:1;stroke-dasharray:none;stroke-dashoffset:0" />
    </g>
    <g
       transform="translate(185.11249,573.09114)"
       id="g4096">
      <rect
         style="fill:#4f4f4f;fill-opacity:1;fill-rule:nonzero;stroke:#4f4f4f;stroke-width:0.21127194;stroke-linecap:round;stroke-linejoin:round;stroke-miterlimit:4;stroke-opacity:1;stroke-dasharray:none;stroke-dashoffset:0"
         id="rect4098"
         width="21.048571"
         height="6.8753424"
         x="-118.82481"
         y="390.70044"
         transform="matrix(0,-1,1,0,0,0)" />
      <rect
         transform="matrix(0,-1,1,0,0,0)"
         y="402.70044"
         x="-118.82481"
         height="6.8753424"
         width="21.048571"
         id="rect4100"
         style="fill:#4f4f4f;fill-opacity:1;fill-rule:nonzero;stroke:#4f4f4f;stroke-width:0.21127194;stroke-linecap:round;stroke-linejoin:round;stroke-miterlimit:4;stroke-opacity:1;stroke-dasharray:none;stroke-dashoffset:0" />
    </g>
    <g
       id="g4126"
       transform="translate(-98.35208,573.09114)">
      <rect
         transform="matrix(0,-1,1,0,0,0)"
         y="390.70044"
         x="-118.82481"
         height="6.8753424"
         width="21.048571"
         id="rect4128"
         style="fill:#4f4f4f;fill-opacity:1;fill-rule:nonzero;stroke:#4f4f4f;stroke-width:0.21127194;stroke-linecap:round;stroke-linejoin:round;stroke-miterlimit:4;stroke-opacity:1;stroke-dasharray:none;stroke-dashoffset:0" />
      <rect
         style="fill:#4f4f4f;fill-opacity:1;fill-rule:nonzero;stroke:#4f4f4f;stroke-width:0.21127194;stroke-linecap:round;stroke-linejoin:round;stroke-miterlimit:4;stroke-opacity:1;stroke-dasharray:none;stroke-dashoffset:0"
         id="rect4130"
         width="21.048571"
         height="6.8753424"
         x="-118.82481"
         y="402.70044"
         transform="matrix(0,-1,1,0,0,0)" />
    </g>
    <rect
       style="fill:#3427ff;fill-opacity:1;fill-rule:nonzero;stroke:#000000;stroke-width:0.0100167;stroke-linecap:round;stroke-linejoin:round;stroke-miterlimit:4;stroke-opacity:1;stroke-dasharray:none;stroke-dashoffset:0"
       id="rect4009"
       width="184.25198"
       height="237.27643"
       x="3.195755"
       y="672.59595" />
    <rect
       y="672.73364"
       x="698.71649"
       height="237.00107"
       width="183.85146"
       id="rect4011"
       style="fill:#3427ff;fill-opacity:1;fill-rule:nonzero;stroke:#4f4f4f;stroke-width:0.40050772;stroke-linecap:round;stroke-linejoin:round;stroke-miterlimit:4;stroke-opacity:1;stroke-dasharray:none;stroke-dashoffset:0" />
    <g
       id="g4037"
       transform="matrix(0,-1,1,0,504.6858,1187.3723)">
      <rect
         transform="matrix(0,-1,1,0,0,0)"
         y="382.70044"
         x="-118.82481"
         height="6.8753424"
         width="21.048571"
         id="rect4039"
         style="fill:#4f4f4f;fill-opacity:1;fill-rule:nonzero;stroke:#4f4f4f;stroke-width:0.21127194;stroke-linecap:round;stroke-linejoin:round;stroke-miterlimit:4;stroke-opacity:1;stroke-dasharray:none;stroke-dashoffset:0" />
      <rect
         style="fill:#4f4f4f;fill-opacity:1;fill-rule:nonzero;stroke:#4f4f4f;stroke-width:0.21127194;stroke-linecap:round;stroke-linejoin:round;stroke-miterlimit:4;stroke-opacity:1;stroke-dasharray:none;stroke-dashoffset:0"
         id="rect4041"
         width="21.048571"
         height="6.8753424"
         x="-118.82481"
         y="402.70044"
         transform="matrix(0,-1,1,0,0,0)" />
    </g>
    <g
       transform="matrix(0,-1,1,0,164.54541,1187.3723)"
       id="g4043">
      <rect
         style="fill:#4f4f4f;fill-opacity:1;fill-rule:nonzero;stroke:#4f4f4f;stroke-width:0.21127194;stroke-linecap:round;stroke-linejoin:round;stroke-miterlimit:4;stroke-opacity:1;stroke-dasharray:none;stroke-dashoffset:0"
         id="rect4045"
         width="21.048571"
         height="6.8753424"
         x="-118.82481"
         y="382.70044"
         transform="matrix(0,-1,1,0,0,0)" />
      <rect
         transform="matrix(0,-1,1,0,0,0)"
         y="402.70044"
         x="-118.82481"
         height="6.8753424"
         width="21.048571"
         id="rect4047"
         style="fill:#4f4f4f;fill-opacity:1;fill-rule:nonzero;stroke:#4f4f4f;stroke-width:0.21127194;stroke-linecap:round;stroke-linejoin:round;stroke-miterlimit:4;stroke-opacity:1;stroke-dasharray:none;stroke-dashoffset:0" />
    </g>
    <rect
       style="fill:#9927ff;fill-opacity:1;fill-rule:nonzero;stroke:#4f4f4f;stroke-width:0.34904805;stroke-linecap:round;stroke-linejoin:round;stroke-miterlimit:4;stroke-opacity:1;stroke-dasharray:none;stroke-dashoffset:0"
       id="rect3063"
       width="139.61159"
       height="237.05252"
       x="720.83643"
       y="672.70795" />
    <rect
       y="672.59595"
       x="24.455566"
       height="237.27646"
       width="141.73236"
       id="rect3833"
       style="fill:#9927ff;fill-opacity:1;fill-rule:nonzero;stroke:#000000;stroke-width:0.01;stroke-linecap:round;stroke-linejoin:round;stroke-miterlimit:4;stroke-opacity:1;stroke-dasharray:none;stroke-dashoffset:0" />
    <path
       style="color:#000000;fill:none;stroke:#000000;stroke-width:0.01;stroke-linecap:butt;stroke-linejoin:miter;stroke-miterlimit:4;stroke-opacity:1;stroke-dasharray:none;stroke-dashoffset:0;marker:none;visibility:visible;display:inline;overflow:visible;enable-background:accumulate"
       d="m 283.56443,356.76066 c 0,-8.50399 -6.85428,-15.52645 -15.52646,-15.52645 l -63.68363,0 c -8.12961,0 -16.9066,7.14805 -16.9066,17.06787 l 0,9.34165 c 0,11.43796 -9.15137,21.36253 -21.25981,21.36253 l -141.732364,0 c -12.247145,0 -21.259811,-8.19585 -21.259811,-20.89405 l 0,-194.3038 c 0,-11.94683 9.918929,-22.07858 21.259811,-22.07858 l 141.732364,0 c 12.0888,0 21.25981,9.36145 21.25981,22.71149 l 0,10.71049 c 0,8.32741 8.49178,14.35011 15.08391,14.35011 l 65.21,0 c 9.21344,0 15.82278,-7.43671 15.82278,-15.82278"
       id="path3835"
       inkscape:connector-curvature="0"
       transform="translate(0,520.86612)"
       sodipodi:nodetypes="cccccccccccccccc" />
    <path
       style="color:#000000;fill:none;stroke:#ffffff;stroke-width:0.01;stroke-linecap:butt;stroke-linejoin:miter;stroke-miterlimit:4;stroke-opacity:1;stroke-dasharray:none;stroke-dashoffset:0;marker:none;visibility:visible;display:inline;overflow:visible;enable-background:accumulate"
       d="m -69.815606,791.23418 146.791787,0"
       id="path3839"
       inkscape:connector-curvature="0" />
    <path
       sodipodi:type="arc"
       style="fill:#00fb28;fill-opacity:1;fill-rule:nonzero;stroke:#000000;stroke-width:0.01;stroke-linecap:round;stroke-linejoin:round;stroke-miterlimit:4;stroke-opacity:1;stroke-dasharray:none;stroke-dashoffset:0"
       id="path3837"
       sodipodi:cx="113.29114"
       sodipodi:cy="427.69858"
       sodipodi:rx="10.126582"
       sodipodi:ry="10.126582"
       d="m 123.41772,427.69858 c 0,5.59275 -4.53383,10.12658 -10.12658,10.12658 -5.59276,0 -10.12658,-4.53383 -10.12658,-10.12658 0,-5.59276 4.53382,-10.12658 10.12658,-10.12658 5.58918,0 10.12153,4.52825 10.12658,10.11743"
       transform="matrix(0.69980316,0,0,0.69980316,63.874885,389.17346)"
       sodipodi:start="0"
       sodipodi:end="6.2822818"
       sodipodi:open="true" />
    <path
       sodipodi:open="true"
       sodipodi:end="6.2822818"
       sodipodi:start="0"
       transform="matrix(0.69980316,0,0,0.69980316,-22.936136,389.17346)"
       d="m 123.41772,427.69858 c 0,5.59275 -4.53383,10.12658 -10.12658,10.12658 -5.59276,0 -10.12658,-4.53383 -10.12658,-10.12658 0,-5.59276 4.53382,-10.12658 10.12658,-10.12658 5.58918,0 10.12153,4.52825 10.12658,10.11743"
       sodipodi:ry="10.126582"
       sodipodi:rx="10.126582"
       sodipodi:cy="427.69858"
       sodipodi:cx="113.29114"
       id="path3841"
       style="fill:#00fb28;fill-opacity:1;fill-rule:nonzero;stroke:#000000;stroke-width:0.01;stroke-linecap:round;stroke-linejoin:round;stroke-miterlimit:4;stroke-opacity:1;stroke-dasharray:none;stroke-dashoffset:0"
       sodipodi:type="arc" />
    <path
       sodipodi:open="true"
       sodipodi:end="6.2822818"
       sodipodi:start="0"
       transform="matrix(0.69980316,0,0,0.69980316,-22.936136,594.68526)"
       d="m 123.41772,427.69858 c 0,5.59275 -4.53383,10.12658 -10.12658,10.12658 -5.59276,0 -10.12658,-4.53383 -10.12658,-10.12658 0,-5.59276 4.53382,-10.12658 10.12658,-10.12658 5.58918,0 10.12153,4.52825 10.12658,10.11743"
       sodipodi:ry="10.126582"
       sodipodi:rx="10.126582"
       sodipodi:cy="427.69858"
       sodipodi:cx="113.29114"
       id="path3843"
       style="fill:#00fb28;fill-opacity:1;fill-rule:nonzero;stroke:#000000;stroke-width:0.01;stroke-linecap:round;stroke-linejoin:round;stroke-miterlimit:4;stroke-opacity:1;stroke-dasharray:none;stroke-dashoffset:0"
       sodipodi:type="arc" />
    <path
       sodipodi:open="true"
       sodipodi:end="6.2822818"
       sodipodi:start="0"
       transform="matrix(0.69980316,0,0,0.69980316,63.874885,594.68526)"
       d="m 123.41772,427.69858 c 0,5.59275 -4.53383,10.12658 -10.12658,10.12658 -5.59276,0 -10.12658,-4.53383 -10.12658,-10.12658 0,-5.59276 4.53382,-10.12658 10.12658,-10.12658 5.58918,0 10.12153,4.52825 10.12658,10.11743"
       sodipodi:ry="10.126582"
       sodipodi:rx="10.126582"
       sodipodi:cy="427.69858"
       sodipodi:cx="113.29114"
       id="path3845"
       style="fill:#00fb28;fill-opacity:1;fill-rule:nonzero;stroke:#000000;stroke-width:0.01;stroke-linecap:round;stroke-linejoin:round;stroke-miterlimit:4;stroke-opacity:1;stroke-dasharray:none;stroke-dashoffset:0"
       sodipodi:type="arc" />
    <g
       id="g3882"
       transform="matrix(-1,0,0,1,886.0265,0)">
      <rect
         style="fill:#3427ff;fill-opacity:1;fill-rule:nonzero;stroke:#000000;stroke-width:0.0100167;stroke-linecap:round;stroke-linejoin:round;stroke-miterlimit:4;stroke-opacity:1;stroke-dasharray:none;stroke-dashoffset:0"
         id="rect3865"
         width="184.25198"
         height="237.27643"
         x="3.195755"
         y="672.59595" />
      <rect
         y="672.59595"
         x="24.455566"
         height="237.27646"
         width="141.73236"
         id="rect3867"
         style="fill:#9927ff;fill-opacity:1;fill-rule:nonzero;stroke:#000000;stroke-width:0.01;stroke-linecap:round;stroke-linejoin:round;stroke-miterlimit:4;stroke-opacity:1;stroke-dasharray:none;stroke-dashoffset:0" />
      <path
         style="color:#000000;fill:none;stroke:#000000;stroke-width:0.01;stroke-linecap:butt;stroke-linejoin:miter;stroke-miterlimit:4;stroke-opacity:1;stroke-dasharray:none;stroke-dashoffset:0;marker:none;visibility:visible;display:inline;overflow:visible;enable-background:accumulate"
         d="m 283.56443,356.76066 c 0,-8.50399 -6.85428,-15.52645 -15.52646,-15.52645 l -63.68363,0 c -8.12961,0 -16.9066,7.14805 -16.9066,17.06787 l 0,9.34165 c 0,11.43796 -9.15137,21.36253 -21.25981,21.36253 l -141.732364,0 c -12.247145,0 -21.259811,-8.19585 -21.259811,-20.89405 l 0,-194.3038 c 0,-11.94683 9.918929,-22.07858 21.259811,-22.07858 l 141.732364,0 c 12.0888,0 21.25981,9.36145 21.25981,22.71149 l 0,10.71049 c 0,8.32741 8.49178,14.35011 15.08391,14.35011 l 65.21,0 c 9.21344,0 15.82278,-7.43671 15.82278,-15.82278"
         id="path3869"
         inkscape:connector-curvature="0"
         transform="translate(0,520.86612)"
         sodipodi:nodetypes="cccccccccccccccc" />
      <path
         style="color:#000000;fill:none;stroke:#ffffff;stroke-width:0.01;stroke-linecap:butt;stroke-linejoin:miter;stroke-miterlimit:4;stroke-opacity:1;stroke-dasharray:none;stroke-dashoffset:0;marker:none;visibility:visible;display:inline;overflow:visible;enable-background:accumulate"
         d="m -69.815606,791.23418 146.791787,0"
         id="path3871"
         inkscape:connector-curvature="0" />
      <path
         sodipodi:type="arc"
         style="fill:#00fb28;fill-opacity:1;fill-rule:nonzero;stroke:#000000;stroke-width:0.01;stroke-linecap:round;stroke-linejoin:round;stroke-miterlimit:4;stroke-opacity:1;stroke-dasharray:none;stroke-dashoffset:0"
         id="path3873"
         sodipodi:cx="113.29114"
         sodipodi:cy="427.69858"
         sodipodi:rx="10.126582"
         sodipodi:ry="10.126582"
         d="m 123.41772,427.69858 c 0,5.59275 -4.53383,10.12658 -10.12658,10.12658 -5.59276,0 -10.12658,-4.53383 -10.12658,-10.12658 0,-5.59276 4.53382,-10.12658 10.12658,-10.12658 5.58918,0 10.12153,4.52825 10.12658,10.11743"
         transform="matrix(0.69980316,0,0,0.69980316,63.874885,389.17346)"
         sodipodi:start="0"
         sodipodi:end="6.2822818"
         sodipodi:open="true" />
      <path
         sodipodi:open="true"
         sodipodi:end="6.2822818"
         sodipodi:start="0"
         transform="matrix(0.69980316,0,0,0.69980316,-22.936136,389.17346)"
         d="m 123.41772,427.69858 c 0,5.59275 -4.53383,10.12658 -10.12658,10.12658 -5.59276,0 -10.12658,-4.53383 -10.12658,-10.12658 0,-5.59276 4.53382,-10.12658 10.12658,-10.12658 5.58918,0 10.12153,4.52825 10.12658,10.11743"
         sodipodi:ry="10.126582"
         sodipodi:rx="10.126582"
         sodipodi:cy="427.69858"
         sodipodi:cx="113.29114"
         id="path3876"
         style="fill:#00fb28;fill-opacity:1;fill-rule:nonzero;stroke:#000000;stroke-width:0.01;stroke-linecap:round;stroke-linejoin:round;stroke-miterlimit:4;stroke-opacity:1;stroke-dasharray:none;stroke-dashoffset:0"
         sodipodi:type="arc" />
      <path
         sodipodi:open="true"
         sodipodi:end="6.2822818"
         sodipodi:start="0"
         transform="matrix(0.69980316,0,0,0.69980316,-22.936136,594.68526)"
         d="m 123.41772,427.69858 c 0,5.59275 -4.53383,10.12658 -10.12658,10.12658 -5.59276,0 -10.12658,-4.53383 -10.12658,-10.12658 0,-5.59276 4.53382,-10.12658 10.12658,-10.12658 5.58918,0 10.12153,4.52825 10.12658,10.11743"
         sodipodi:ry="10.126582"
         sodipodi:rx="10.126582"
         sodipodi:cy="427.69858"
         sodipodi:cx="113.29114"
         id="path3878"
         style="fill:#00fb28;fill-opacity:1;fill-rule:nonzero;stroke:#000000;stroke-width:0.01;stroke-linecap:round;stroke-linejoin:round;stroke-miterlimit:4;stroke-opacity:1;stroke-dasharray:none;stroke-dashoffset:0"
         sodipodi:type="arc" />
      <path
         sodipodi:open="true"
         sodipodi:end="6.2822818"
         sodipodi:start="0"
         transform="matrix(0.69980316,0,0,0.69980316,63.874885,594.68526)"
         d="m 123.41772,427.69858 c 0,5.59275 -4.53383,10.12658 -10.12658,10.12658 -5.59276,0 -10.12658,-4.53383 -10.12658,-10.12658 0,-5.59276 4.53382,-10.12658 10.12658,-10.12658 5.58918,0 10.12153,4.52825 10.12658,10.11743"
         sodipodi:ry="10.126582"
         sodipodi:rx="10.126582"
         sodipodi:cy="427.69858"
         sodipodi:cx="113.29114"
         id="path3880"
         style="fill:#00fb28;fill-opacity:1;fill-rule:nonzero;stroke:#000000;stroke-width:0.01;stroke-linecap:round;stroke-linejoin:round;stroke-miterlimit:4;stroke-opacity:1;stroke-dasharray:none;stroke-dashoffset:0"
         sodipodi:type="arc" />
    </g>
  </g>
</svg>
