<?xml version="1.0" encoding="UTF-8" standalone="no"?>
<!-- Created with Inkscape (http://www.inkscape.org/) -->

<svg
   xmlns:dc="http://purl.org/dc/elements/1.1/"
   xmlns:cc="http://creativecommons.org/ns#"
   xmlns:rdf="http://www.w3.org/1999/02/22-rdf-syntax-ns#"
   xmlns:svg="http://www.w3.org/2000/svg"
   xmlns="http://www.w3.org/2000/svg"
   xmlns:sodipodi="http://sodipodi.sourceforge.net/DTD/sodipodi-0.dtd"
   xmlns:inkscape="http://www.inkscape.org/namespaces/inkscape"
   width="210mm"
   height="297mm"
   id="svg2"
   version="1.1"
   inkscape:version="0.48.4 r9939"
   sodipodi:docname="Top-Bottom-Front-v1.0-3mm.svg">
  <defs
     id="defs4" />
  <sodipodi:namedview
     id="base"
     pagecolor="#ffffff"
     bordercolor="#666666"
     borderopacity="1.0"
     inkscape:pageopacity="0.0"
     inkscape:pageshadow="2"
     inkscape:zoom="0.79152577"
     inkscape:cx="239.58251"
     inkscape:cy="795.54228"
     inkscape:document-units="px"
     inkscape:current-layer="layer1"
     showgrid="false"
     showguides="true"
     inkscape:guide-bbox="true"
     inkscape:snap-object-midpoints="false"
     inkscape:object-nodes="true"
     inkscape:snap-nodes="false"
     inkscape:object-paths="true"
     inkscape:snap-intersection-paths="true"
     inkscape:snap-center="true"
     inkscape:window-width="1366"
     inkscape:window-height="733"
     inkscape:window-x="0"
     inkscape:window-y="0"
     inkscape:window-maximized="1"
     inkscape:snap-midpoints="true">
    <sodipodi:guide
       orientation="1,0"
       position="181.36134,858.31892"
       id="guide2991" />
    <sodipodi:guide
       orientation="1,0"
       position="677.60266,972.36688"
       id="guide3836" />
    <sodipodi:guide
       orientation="1,0"
       position="393.07246,1038.0686"
       id="guide3838" />
    <sodipodi:guide
       orientation="0,1"
       position="677.60266,972.36688"
       id="guide3840" />
  </sodipodi:namedview>
  <metadata
     id="metadata7">
    <rdf:RDF>
      <cc:Work
         rdf:about="">
        <dc:format>image/svg+xml</dc:format>
        <dc:type
           rdf:resource="http://purl.org/dc/dcmitype/StillImage" />
        <dc:title />
      </cc:Work>
    </rdf:RDF>
  </metadata>
  <g
     inkscape:label="Calque 1"
     inkscape:groupmode="layer"
     id="layer1">
    <rect
       style="opacity:0.98999999;fill:#9da7ff;fill-opacity:1;fill-rule:nonzero;stroke:none"
       id="rect3885"
       width="255.1181"
       height="411.02362"
       x="408.31134"
       y="601.20673" />
    <rect
       style="opacity:0.98999999;fill:#97ec8a;fill-opacity:1;fill-rule:nonzero;stroke:none"
       id="rect3891"
       width="3.5433071"
       height="3.5433071"
       x="428.10623"
       y="1008.7987" />
    <rect
       style="opacity:0.98999999000000005;fill:#9092ab;fill-opacity:1;fill-rule:nonzero;stroke:none"
       id="rect3883"
       width="318.89764"
       height="496.06299"
       x="376.42157"
       y="537.53894" />
    <rect
       style="opacity:0.98999999;fill:#97ec8a;fill-opacity:1;fill-rule:nonzero;stroke:none"
       id="rect3893"
       width="3.5433071"
       height="70.866142"
       x="422.60153"
       y="941.47595" />
    <rect
       y="42.359444"
       x="355.57574"
       height="344.56305"
       width="360.58926"
       id="rect3824"
       style="opacity:0.98999999;fill:#8aec8a;fill-opacity:0.4517544;fill-rule:nonzero;stroke:none" />
    <rect
       style="opacity:0.98999999;fill:#8aec8a;fill-opacity:0.4517544;fill-rule:nonzero;stroke:none"
       id="rect3822"
       width="318.89764"
       height="304.7244"
       x="376.42157"
       y="62.278778" />
    <path
       style="color:#000000;fill:#8a92ec;fill-opacity:0.4517544;stroke:none;stroke-width:1px;marker:none;visibility:visible;display:inline;overflow:visible;enable-background:accumulate"
       d="m 376.42157,62.278778 c 0,0 18.65568,-21.254482 159.44882,-21.254482 140.79314,0 159.44882,21.254482 159.44882,21.254482 0,0 21.6505,17.681343 21.6505,152.362192 0,134.68085 -21.6505,152.3622 -21.6505,152.3622 0,0 -17.64422,19.91932 -159.01324,19.91932 -141.36902,0 -159.8844,-19.91932 -159.8844,-19.91932 0,0 -20.84583,-16.16815 -20.84583,-151.63206 0,-135.463907 20.84583,-153.092332 20.84583,-153.092332 z"
       id="path3830"
       inkscape:connector-curvature="0"
       sodipodi:nodetypes="czczczczc" />
    <rect
       style="opacity:0.98999999;fill:#f6761f;fill-opacity:1;fill-rule:nonzero;stroke:none"
       id="rect2985"
       width="265.74802"
       height="177.16536"
       x="48.487324"
       y="105.46059" />
    <rect
       style="opacity:0.98999999;fill:#f6761f;fill-opacity:1;fill-rule:nonzero;stroke:none"
       id="rect2987"
       width="194.8819"
       height="21.259842"
       x="83.92038"
       y="282.62595" />
    <rect
       y="84.200745"
       x="82.366379"
       height="21.259842"
       width="197.9899"
       id="rect2989"
       style="opacity:0.98999999;fill:#f6761f;fill-opacity:1;fill-rule:nonzero;stroke:none" />
    <path
       style="color:#000000;fill:#5c3204;stroke:none;stroke-width:1px;stroke-linecap:butt;stroke-linejoin:miter;stroke-miterlimit:4;stroke-opacity:1;stroke-dasharray:none;stroke-dashoffset:0;marker:none;visibility:visible;display:inline;overflow:visible;enable-background:accumulate;fill-opacity:1"
       d="M 82.366379,84.200745 93.43911,25.037043 181.36134,84.383505 z"
       id="path3763"
       inkscape:connector-curvature="0" />
    <path
       inkscape:connector-curvature="0"
       id="path3765"
       d="M 280.35626,84.200745 269.28353,25.037043 181.3613,84.383505 z"
       style="color:#000000;fill:#5c3204;fill-opacity:1;stroke:none;stroke-width:1px;marker:none;visibility:visible;display:inline;overflow:visible;enable-background:accumulate" />
    <rect
       style="opacity:0.98999999;fill:#5c3204;fill-opacity:1;fill-rule:nonzero;stroke:none"
       id="rect3767"
       width="169.28572"
       height="32.909992"
       x="96.718475"
       y="51.290752" />
    <flowRoot
       xml:space="preserve"
       id="flowRoot3769"
       style="font-size:28px;font-style:normal;font-variant:normal;font-weight:600;font-stretch:normal;text-align:center;line-height:125%;letter-spacing:0px;word-spacing:0px;text-anchor:middle;fill:#301b0d;fill-opacity:1;stroke:none;font-family:Chalet;-inkscape-font-specification:Chalet Semi-Bold"
       transform="translate(-189.34389,54.97827)"><flowRegion
         id="flowRegion3771"><rect
           id="rect3773"
           width="130.81473"
           height="36.365494"
           x="305.06607"
           y="-4.2573805"
           style="font-size:28px;font-style:normal;font-variant:normal;font-weight:600;font-stretch:normal;text-align:center;text-anchor:middle;fill:#301b0d;fill-opacity:1;font-family:Chalet;-inkscape-font-specification:Chalet Semi-Bold" /></flowRegion><flowPara
         id="flowPara3775"
         style="font-size:22px;font-style:normal;font-variant:normal;font-weight:600;font-stretch:normal;text-align:center;text-anchor:middle;fill:#301b0d;fill-opacity:1;font-family:Chalet;-inkscape-font-specification:Chalet Semi-Bold">Gyrobot</flowPara></flowRoot>    <g
       id="g3784"
       transform="translate(-0.01802899,0)"
       style="fill:#a7e3fb;fill-opacity:1">
      <g
         id="g3781"
         style="fill:#a7e3fb;fill-opacity:1">
        <path
           transform="matrix(0.32307719,0,0,0.32307719,95.615716,47.600448)"
           sodipodi:open="true"
           sodipodi:end="6.2822818"
           sodipodi:start="0"
           d="m 58.588848,22.006586 c 0,10.599945 -8.592953,19.192898 -19.192898,19.192898 -10.599944,0 -19.192897,-8.592953 -19.192897,-19.192898 0,-10.599945 8.592953,-19.1928977 19.192897,-19.1928977 10.593174,0 19.183319,8.5823877 19.19289,19.1755567"
           sodipodi:ry="19.192898"
           sodipodi:rx="19.192898"
           sodipodi:cy="22.006586"
           sodipodi:cx="39.39595"
           id="path3777"
           style="opacity:0.98999999000000005;fill:#a7e3fb;fill-opacity:1;fill-rule:nonzero;stroke:none"
           sodipodi:type="arc" />
      </g>
      <path
         transform="matrix(0.32307719,0,0,0.32307719,241.68714,47.600448)"
         sodipodi:open="true"
         sodipodi:end="6.2822818"
         sodipodi:start="0"
         d="m 58.588848,22.006586 c 0,10.599945 -8.592953,19.192898 -19.192898,19.192898 -10.599944,0 -19.192897,-8.592953 -19.192897,-19.192898 0,-10.599945 8.592953,-19.1928977 19.192897,-19.1928977 10.593174,0 19.183319,8.5823877 19.19289,19.1755567"
         sodipodi:ry="19.192898"
         sodipodi:rx="19.192898"
         sodipodi:cy="22.006586"
         sodipodi:cx="39.39595"
         id="path3779"
         style="opacity:0.98999999000000005;fill:#a7e3fb;fill-opacity:1;fill-rule:nonzero;stroke:none"
         sodipodi:type="arc" />
    </g>
    <rect
       style="opacity:0.98999999;fill:#f1dbcc;fill-opacity:1;fill-rule:nonzero;stroke:none"
       id="rect3789"
       width="203.74016"
       height="28.346457"
       x="79.491257"
       y="107.46059" />
    <rect
       y="135.80704"
       x="79.491257"
       height="28.346457"
       width="203.74016"
       id="rect3791"
       style="opacity:0.98999999;fill:#f1dbcc;fill-opacity:1;fill-rule:nonzero;stroke:none" />
    <rect
       y="164.15349"
       x="79.491257"
       height="28.346457"
       width="203.74016"
       id="rect3793"
       style="opacity:0.98999999;fill:#f1dbcc;fill-opacity:1;fill-rule:nonzero;stroke:none" />
    <rect
       style="opacity:0.98999999;fill:#f1dbcc;fill-opacity:1;fill-rule:nonzero;stroke:none"
       id="rect3795"
       width="203.74016"
       height="28.346457"
       x="79.491257"
       y="192.49994" />
    <rect
       y="220.84639"
       x="79.491257"
       height="28.346457"
       width="203.74016"
       id="rect3797"
       style="opacity:0.98999999;fill:#f1dbcc;fill-opacity:1;fill-rule:nonzero;stroke:none" />
    <rect
       style="opacity:0.98999999000000005;fill:#e9c4ac;fill-opacity:1;fill-rule:nonzero;stroke:none"
       id="rect3799"
       width="88.58268"
       height="21.259842"
       x="137.06999"
       y="282.62595" />
    <path
       style="color:#000000;fill:#afe9ac;fill-opacity:1;stroke:none;stroke-width:1px;marker:none;visibility:visible;display:inline;overflow:visible;enable-background:accumulate"
       d="m 140.78235,282.62595 c 0,0 -2.75596,-31.80404 40.57899,-31.80404 43.33495,0 40.70897,31.80404 40.70897,31.80404 z"
       id="path3801"
       inkscape:connector-curvature="0"
       sodipodi:nodetypes="czcc" />
    <g
       id="g3805"
       transform="translate(-2.7148367,-6)">
      <path
         transform="matrix(0.23076942,0,0,0.23076942,66.685576,115.45768)"
         sodipodi:open="true"
         sodipodi:end="6.2822818"
         sodipodi:start="0"
         d="m 58.588848,22.006586 c 0,10.599945 -8.592953,19.192898 -19.192898,19.192898 -10.599944,0 -19.192897,-8.592953 -19.192897,-19.192898 0,-10.599945 8.592953,-19.1928977 19.192897,-19.1928977 10.593174,0 19.183319,8.5823877 19.19289,19.1755567"
         sodipodi:ry="19.192898"
         sodipodi:rx="19.192898"
         sodipodi:cy="22.006586"
         sodipodi:cx="39.39595"
         id="path2993"
         style="opacity:0.98999999;fill:#6ef61f;fill-opacity:1;fill-rule:nonzero;stroke:none"
         sodipodi:type="arc" />
      <path
         sodipodi:type="arc"
         style="opacity:0.98999999;fill:#6ef61f;fill-opacity:1;fill-rule:nonzero;stroke:none"
         id="path3803"
         sodipodi:cx="39.39595"
         sodipodi:cy="22.006586"
         sodipodi:rx="19.192898"
         sodipodi:ry="19.192898"
         d="m 58.588848,22.006586 c 0,10.599945 -8.592953,19.192898 -19.192898,19.192898 -10.599944,0 -19.192897,-8.592953 -19.192897,-19.192898 0,-10.599945 8.592953,-19.1928977 19.192897,-19.1928977 10.593174,0 19.183319,8.5823877 19.19289,19.1755567"
         sodipodi:start="0"
         sodipodi:end="6.2822818"
         sodipodi:open="true"
         transform="matrix(0.23076942,0,0,0.23076942,283.284,115.45768)" />
    </g>
    <rect
       style="opacity:0.98999999;fill:#ecb78a;fill-opacity:1;fill-rule:nonzero;stroke:none"
       id="rect3809"
       width="283.46457"
       height="269.29135"
       x="394.13812"
       y="79.9953" />
    <path
       sodipodi:type="arc"
       style="opacity:0.98999999;fill:#f375f3;fill-opacity:1;fill-rule:nonzero;stroke:none"
       id="path3811"
       sodipodi:cx="432.14285"
       sodipodi:cy="51.647896"
       sodipodi:rx="11.071428"
       sodipodi:ry="11.071428"
       d="m 443.21428,51.647896 a 11.071428,11.071428 0 1 1 0,-0.01"
       sodipodi:start="0"
       sodipodi:end="6.2822818"
       sodipodi:open="true"
       transform="matrix(0.67208536,0,0,0.67208536,103.70123,45.283506)" />
    <path
       transform="matrix(0.67208536,0,0,0.67208536,387.1658,45.283506)"
       sodipodi:open="true"
       sodipodi:end="6.2822818"
       sodipodi:start="0"
       d="m 443.21428,51.647896 a 11.071428,11.071428 0 1 1 0,-0.01"
       sodipodi:ry="11.071428"
       sodipodi:rx="11.071428"
       sodipodi:cy="51.647896"
       sodipodi:cx="432.14285"
       id="path3813"
       style="opacity:0.98999999;fill:#f375f3;fill-opacity:1;fill-rule:nonzero;stroke:none"
       sodipodi:type="arc" />
    <path
       transform="matrix(0.67208536,0,0,0.67208536,102.69108,314.57486)"
       sodipodi:open="true"
       sodipodi:end="6.2822818"
       sodipodi:start="0"
       d="m 443.21428,51.647896 a 11.071428,11.071428 0 1 1 0,-0.01"
       sodipodi:ry="11.071428"
       sodipodi:rx="11.071428"
       sodipodi:cy="51.647896"
       sodipodi:cx="432.14285"
       id="path3815"
       style="opacity:0.98999999;fill:#f375f3;fill-opacity:1;fill-rule:nonzero;stroke:none"
       sodipodi:type="arc" />
    <path
       sodipodi:type="arc"
       style="opacity:0.98999999;fill:#f375f3;fill-opacity:1;fill-rule:nonzero;stroke:none"
       id="path3817"
       sodipodi:cx="432.14285"
       sodipodi:cy="51.647896"
       sodipodi:rx="11.071428"
       sodipodi:ry="11.071428"
       d="m 443.21428,51.647896 a 11.071428,11.071428 0 1 1 0,-0.01"
       sodipodi:start="0"
       sodipodi:end="6.2822818"
       sodipodi:open="true"
       transform="matrix(0.67208536,0,0,0.67208536,386.15565,314.57486)" />
    <rect
       style="opacity:0.98999999;fill:#f375f3;fill-opacity:1;fill-rule:nonzero;stroke:none"
       id="rect3020"
       width="63.779526"
       height="159.44882"
       x="383.39938"
       y="96.719177" />
    <rect
       style="opacity:0.98999999;fill:#f375f3;fill-opacity:1;fill-rule:nonzero;stroke:none"
       id="rect3022"
       width="56.692913"
       height="74.409447"
       x="383.39938"
       y="259.95035" />
    <path
       sodipodi:type="arc"
       style="opacity:0.98999999;fill:#fbddfb;fill-opacity:1;fill-rule:nonzero;stroke:none"
       id="path3030"
       sodipodi:cx="480.40128"
       sodipodi:cy="294.01669"
       sodipodi:rx="72.96035"
       sodipodi:ry="76.750504"
       d="m 553.36163,294.01669 a 72.96035,76.750504 0 1 1 -3e-5,-0.0693"
       sodipodi:start="0"
       sodipodi:end="6.2822818"
       sodipodi:open="true"
       transform="matrix(1.2141208,0,0,1.1541641,-47.394781,-58.642329)" />
    <rect
       y="93.382881"
       x="621.92285"
       height="152.3622"
       width="74.409447"
       id="rect3800"
       style="opacity:0.98999999;fill:#f375f3;fill-opacity:1;fill-rule:nonzero;stroke:none" />
    <path
       transform="matrix(0.32307719,0,0,0.32307719,523.14246,128.94707)"
       sodipodi:open="true"
       sodipodi:end="6.2822818"
       sodipodi:start="0"
       d="m 58.588848,22.006586 a 19.192898,19.192898 0 1 1 -8e-6,-0.01734"
       sodipodi:ry="19.192898"
       sodipodi:rx="19.192898"
       sodipodi:cy="22.006586"
       sodipodi:cx="39.39595"
       id="path3779-8"
       style="opacity:0.98999999;fill:#a7e3fb;fill-opacity:1;fill-rule:nonzero;stroke:none"
       sodipodi:type="arc" />
    <flowRoot
       xml:space="preserve"
       id="flowRoot3842"
       style="fill:black;stroke:none;stroke-opacity:1;stroke-width:1px;stroke-linejoin:miter;stroke-linecap:butt;fill-opacity:1;font-family:Sans;font-style:normal;font-weight:normal;font-size:40px;line-height:125%;letter-spacing:0px;word-spacing:0px"><flowRegion
         id="flowRegion3844"><rect
           id="rect3846"
           width="137.57536"
           height="92.908035"
           x="758.45117"
           y="159.90903" /></flowRegion><flowPara
         id="flowPara3848"></flowPara></flowRoot>    <text
       xml:space="preserve"
       style="font-size:40px;font-style:normal;font-weight:normal;line-height:125%;letter-spacing:0px;word-spacing:0px;fill:#000000;fill-opacity:1;stroke:none;font-family:Sans"
       x="735.22418"
       y="192.06949"
       id="text3850"
       sodipodi:linespacing="125%"><tspan
         sodipodi:role="line"
         id="tspan3852"
         x="735.22418"
         y="192.06949"
         style="font-size:30px">mettre trous !</tspan><tspan
         sodipodi:role="line"
         x="735.22418"
         y="229.56949"
         style="font-size:30px"
         id="tspan3856">+ logos</tspan><tspan
         sodipodi:role="line"
         x="735.22418"
         y="267.06949"
         style="font-size:30px"
         id="tspan3860">+ trous élastiques caméra</tspan></text>
    <g
       id="g3895"
       transform="translate(0.50506706,-63.050721)">
      <rect
         style="opacity:0.98999999000000005;fill:#aec5f2;fill-opacity:1;fill-rule:nonzero;stroke:none"
         id="rect3873"
         width="283.46457"
         height="269.29135"
         x="394.13812"
         y="733.92493" />
      <path
         sodipodi:type="arc"
         style="opacity:0.98999999;fill:#f375f3;fill-opacity:1;fill-rule:nonzero;stroke:none"
         id="path3875"
         sodipodi:cx="432.14285"
         sodipodi:cy="51.647896"
         sodipodi:rx="11.071428"
         sodipodi:ry="11.071428"
         d="m 443.21428,51.647896 c 0,6.114581 -4.95685,11.071428 -11.07143,11.071428 -6.11458,0 -11.07143,-4.956847 -11.07143,-11.071428 0,-6.114581 4.95685,-11.071428 11.07143,-11.071428 6.11068,0 11.06591,4.950752 11.07143,11.061425"
         sodipodi:start="0"
         sodipodi:end="6.2822818"
         sodipodi:open="true"
         transform="matrix(0.67208536,0,0,0.67208536,103.70123,699.21315)" />
      <path
         transform="matrix(0.67208536,0,0,0.67208536,387.1658,699.21315)"
         sodipodi:open="true"
         sodipodi:end="6.2822818"
         sodipodi:start="0"
         d="m 443.21428,51.647896 c 0,6.114581 -4.95685,11.071428 -11.07143,11.071428 -6.11458,0 -11.07143,-4.956847 -11.07143,-11.071428 0,-6.114581 4.95685,-11.071428 11.07143,-11.071428 6.11068,0 11.06591,4.950752 11.07143,11.061425"
         sodipodi:ry="11.071428"
         sodipodi:rx="11.071428"
         sodipodi:cy="51.647896"
         sodipodi:cx="432.14285"
         id="path3877"
         style="opacity:0.98999999;fill:#f375f3;fill-opacity:1;fill-rule:nonzero;stroke:none"
         sodipodi:type="arc" />
      <path
         transform="matrix(0.67208536,0,0,0.67208536,102.69108,968.50451)"
         sodipodi:open="true"
         sodipodi:end="6.2822818"
         sodipodi:start="0"
         d="m 443.21428,51.647896 c 0,6.114581 -4.95685,11.071428 -11.07143,11.071428 -6.11458,0 -11.07143,-4.956847 -11.07143,-11.071428 0,-6.114581 4.95685,-11.071428 11.07143,-11.071428 6.11068,0 11.06591,4.950752 11.07143,11.061425"
         sodipodi:ry="11.071428"
         sodipodi:rx="11.071428"
         sodipodi:cy="51.647896"
         sodipodi:cx="432.14285"
         id="path3879"
         style="opacity:0.98999999;fill:#f375f3;fill-opacity:1;fill-rule:nonzero;stroke:none"
         sodipodi:type="arc" />
      <path
         sodipodi:type="arc"
         style="opacity:0.98999999;fill:#f375f3;fill-opacity:1;fill-rule:nonzero;stroke:none"
         id="path3881"
         sodipodi:cx="432.14285"
         sodipodi:cy="51.647896"
         sodipodi:rx="11.071428"
         sodipodi:ry="11.071428"
         d="m 443.21428,51.647896 c 0,6.114581 -4.95685,11.071428 -11.07143,11.071428 -6.11458,0 -11.07143,-4.956847 -11.07143,-11.071428 0,-6.114581 4.95685,-11.071428 11.07143,-11.071428 6.11068,0 11.06591,4.950752 11.07143,11.061425"
         sodipodi:start="0"
         sodipodi:end="6.2822818"
         sodipodi:open="true"
         transform="matrix(0.67208536,0,0,0.67208536,386.15565,968.50451)" />
    </g>
    <rect
       style="opacity:0.98999999;fill:#d4ff45;fill-opacity:1;fill-rule:nonzero;stroke:none"
       id="rect3902"
       width="212.59842"
       height="318.89764"
       x="429.57117"
       y="689.90106" />
    <rect
       style="opacity:0.98999999;fill:#97ec8a;fill-opacity:1;fill-rule:nonzero;stroke:none"
       id="rect3887"
       width="3.5433071"
       height="10.629921"
       x="422.56293"
       y="1022.972" />
    <rect
       style="opacity:0.98999999;fill:#97ec8a;fill-opacity:1;fill-rule:nonzero;stroke:none"
       id="rect3889"
       width="3.5433071"
       height="10.629921"
       x="424.56293"
       y="1012.3421" />
    <rect
       style="opacity:0.98999999;fill:#d4ff45;fill-opacity:1;fill-rule:nonzero;stroke:none"
       id="rect3938"
       width="21.259842"
       height="14.173228"
       x="525.24048"
       y="537.53894" />
    <rect
       style="opacity:0.98999999;fill:#d4ff45;fill-opacity:1;fill-rule:nonzero;stroke:none"
       id="rect3940"
       width="230.31496"
       height="24.80315"
       x="420.71289"
       y="551.71216" />
    <rect
       style="opacity:0.98999999;fill:#8ab300;fill-opacity:1;fill-rule:nonzero;stroke:none"
       id="rect3942"
       width="14.173228"
       height="14.173218"
       x="511.03833"
       y="537.53894" />
    <rect
       y="537.53894"
       x="546.50031"
       height="14.173218"
       width="14.173228"
       id="rect3944"
       style="opacity:0.98999999;fill:#8ab300;fill-opacity:1;fill-rule:nonzero;stroke:none" />
    <rect
       style="opacity:0.98999999;fill:#8ab300;fill-opacity:1;fill-rule:nonzero;stroke:none"
       id="rect3946"
       width="24.80315"
       height="24.803131"
       x="420.71289"
       y="551.71216" />
    <rect
       y="551.71216"
       x="626.22467"
       height="24.803131"
       width="24.80315"
       id="rect3948"
       style="opacity:0.98999999;fill:#8ab300;fill-opacity:1;fill-rule:nonzero;stroke:none" />
    <path
       style="color:#000000;fill:none;stroke:#ffffff;stroke-width:0.17716534;stroke-linecap:butt;stroke-linejoin:miter;stroke-miterlimit:4;stroke-opacity:1;stroke-dasharray:none;stroke-dashoffset:0;marker:none;visibility:visible;display:inline;overflow:visible;enable-background:accumulate"
       d="m 518.12494,537.53894 c 0,0 7.11554,-0.16927 7.11554,7.08661 0,7.25588 -7.11554,7.08661 -7.11554,7.08661 l -85.01047,0 c 0,0 -12.40158,-0.23624 -12.40158,12.40158 0,12.63782 12.40158,12.40152 12.40158,12.40152 l 205.51178,0 c 0,0 12.40156,0.0774 12.40158,-12.40152 2e-5,-12.47891 -12.40158,-12.40158 -12.40158,-12.40158 l -85.03934,0 c 0,0 -7.0866,-0.0609 -7.0866,-7.08661 0,-7.02571 7.0866,-7.08661 7.0866,-7.08661"
       id="path3950"
       inkscape:connector-curvature="0"
       sodipodi:nodetypes="czcczcczcczc" />
    <rect
       style="opacity:0.98999999;fill:#8ab300;fill-opacity:1;fill-rule:nonzero;stroke:none"
       id="rect3952"
       width="24.80315"
       height="24.803131"
       x="670.51605"
       y="537.53894" />
    <rect
       y="537.53894"
       x="376.42157"
       height="24.803131"
       width="24.80315"
       id="rect3954"
       style="opacity:0.98999999;fill:#8ab300;fill-opacity:1;fill-rule:nonzero;stroke:none" />
    <rect
       y="1008.7988"
       x="670.51605"
       height="24.803131"
       width="24.80315"
       id="rect3956"
       style="opacity:0.98999999;fill:#8ab300;fill-opacity:1;fill-rule:nonzero;stroke:none" />
    <rect
       style="opacity:0.98999999;fill:#8ab300;fill-opacity:1;fill-rule:nonzero;stroke:none"
       id="rect3958"
       width="24.80315"
       height="24.803131"
       x="376.42157"
       y="1008.7988" />
    <path
       style="color:#000000;fill:none;stroke:#ffffff;stroke-width:0.17716534;stroke-linecap:butt;stroke-linejoin:miter;stroke-miterlimit:4;stroke-opacity:1;stroke-dasharray:none;stroke-dashoffset:0;marker:none;visibility:visible;display:inline;overflow:visible;enable-background:accumulate"
       d="m 388.82315,537.53894 c 6.94302,0 287.32575,0 294.09448,0 6.76873,0 12.40158,4.72331 12.40158,12.40155 0,7.67824 0,464.19471 0,471.25991 0,7.0652 -6.10112,12.4015 -12.40158,12.4015 -6.30046,0 -287.13837,0 -294.09448,0 -6.95611,0 -12.40158,-5.2596 -12.40158,-12.4015 0,-7.1419 0,-464.35211 0,-471.25991 0,-6.9078 5.45856,-12.40155 12.40158,-12.40155 z"
       id="path3960"
       inkscape:connector-curvature="0"
       sodipodi:nodetypes="zzzzzzzzz" />
    <path
       id="path3987"
       d="m 438.24208,1012.1204 0,11.0717 53.60292,0 0,-11.0717 z m 141.71875,0.056 0,11.0158 53.54709,0 0,-11.0158 z"
       style="opacity:0.98999999;fill:#f0f61f;fill-opacity:1;fill-rule:nonzero;stroke:none"
       inkscape:connector-curvature="0"
       sodipodi:nodetypes="cccccccccc" />
    <path
       style="opacity:0.98999999;fill:#f6761f;fill-opacity:1;fill-rule:nonzero;stroke:none"
       d="m 438.4375,1039.5065 0,10.625 53.15625,0 0,-10.625 -53.15625,0 z m 141.71875,0 0,10.625 53.15625,0 0,-10.625 -53.15625,0 z"
       id="rect3974"
       inkscape:connector-curvature="0" />
  </g>
</svg>
