<?xml version="1.0" encoding="UTF-8" standalone="no"?>
<!-- Created with Inkscape (http://www.inkscape.org/) -->

<svg
   xmlns:dc="http://purl.org/dc/elements/1.1/"
   xmlns:cc="http://creativecommons.org/ns#"
   xmlns:rdf="http://www.w3.org/1999/02/22-rdf-syntax-ns#"
   xmlns:svg="http://www.w3.org/2000/svg"
   xmlns="http://www.w3.org/2000/svg"
   xmlns:sodipodi="http://sodipodi.sourceforge.net/DTD/sodipodi-0.dtd"
   xmlns:inkscape="http://www.inkscape.org/namespaces/inkscape"
   width="708.6618"
   height="1468.6619"
   viewBox="0 0 708.6618 1468.6619"
   id="svg2"
   version="1.1"
   inkscape:version="0.48.4 r9939"
   sodipodi:docname="Wheel-v0.2-3mm.svg">
  <defs
     id="defs4" />
  <sodipodi:namedview
     id="base"
     pagecolor="#ffffff"
     bordercolor="#666666"
     borderopacity="1.0"
     inkscape:pageopacity="0.0"
     inkscape:pageshadow="2"
     inkscape:zoom="0.41"
     inkscape:cx="401.92692"
     inkscape:cy="732.68604"
     inkscape:document-units="px"
     inkscape:current-layer="layer1"
     showgrid="false"
     inkscape:snap-object-midpoints="true"
     inkscape:window-width="623"
     inkscape:window-height="715"
     inkscape:window-x="723"
     inkscape:window-y="17"
     inkscape:window-maximized="0"
     inkscape:object-nodes="true"
     inkscape:snap-intersection-paths="true"
     inkscape:snap-nodes="true"
     inkscape:snap-others="false"
     inkscape:snap-global="true"
     inkscape:object-paths="false"
     fit-margin-top="0"
     fit-margin-left="0"
     fit-margin-right="0"
     fit-margin-bottom="0" />
  <metadata
     id="metadata7">
    <rdf:RDF>
      <cc:Work
         rdf:about="">
        <dc:format>image/svg+xml</dc:format>
        <dc:type
           rdf:resource="http://purl.org/dc/dcmitype/StillImage" />
        <dc:title></dc:title>
      </cc:Work>
    </rdf:RDF>
  </metadata>
  <g
     inkscape:label="Calque 1"
     inkscape:groupmode="layer"
     id="layer1"
     transform="translate(-15.214496,-781.34334)">
    <path
       style="fill:none;fill-opacity:1;fill-rule:evenodd;stroke:#0000ff;stroke-width:0.01;stroke-linecap:butt;stroke-linejoin:miter;stroke-miterlimit:4;stroke-opacity:1;stroke-dasharray:none"
       d="M 354.34375 0.59375 A 353.74392 353.74392 0 0 0 0.59375 354.34375 A 353.74392 353.74392 0 0 0 354.34375 708.0625 A 353.74392 353.74392 0 0 0 708.0625 354.34375 A 353.74392 353.74392 0 0 0 354.34375 0.59375 z M 353.6875 22 L 313.34375 319.1875 L 319.46875 327.15625 A 44.257277 44.257277 0 0 0 310.28125 349.96875 L 299.0625 354 L 199.625 226.1875 C 159.35541 171.51987 118.30954 121.2578 148.59375 93.375 A 332.35082 332.35082 0 0 1 353.6875 22 z M 421.6875 31.4375 C 426.80694 31.3755 432.28891 31.93315 438.1875 33.15625 A 332.35082 332.35082 0 0 1 447.15625 35.4375 C 461.48139 39.8333 468.49825 46.1043 470.96875 53.1875 C 475.07348 64.9562 466.68352 79.02605 458.71875 90.78125 L 339.46875 266.78125 L 360.125 112.21875 C 368.32763 63.036851 385.74833 31.8703 421.6875 31.4375 z M 521.96875 73.71875 C 527.58485 73.58555 533.17863 74.99845 538.8125 78.28125 L 539.0625 78.25 A 332.35082 332.35082 0 0 1 670 251.65625 L 375.6875 304.96875 L 370.15625 313.0625 A 44.257277 44.257277 0 0 0 354.34375 310.0625 A 44.257277 44.257277 0 0 0 344.25 311.28125 L 344.34375 311.21875 L 336.9375 301.625 L 427.75 167.5625 C 461.27965 120.76955 491.64182 74.43815 521.96875 73.71875 z M 104.1875 149.75 C 116.64864 149.4829 127.43763 161.7925 136.15625 173 C 136.16025 173.01 136.15255 173.02625 136.15625 173.03125 L 266.6875 340.8125 L 126.09375 273.40625 C 76.134979 247.43405 51.648301 217.37105 74.21875 176.15625 A 332.35082 332.35082 0 0 1 79.15625 168.0625 C 88.060952 154.9367 96.45634 149.9157 104.1875 149.75 z M 38.4375 251.71875 L 308.46875 381.875 L 317.40625 378.65625 A 44.257277 44.257277 0 0 0 337.8125 395.34375 L 336.78125 395.375 L 337.125 407.5 L 184.84375 462.59375 C 121.30296 483.70185 61.60114 506.8039 43.5 471.5625 A 332.35082 332.35082 0 0 1 21.96875 354.34375 A 332.35082 332.35082 0 0 1 38.4375 251.71875 z M 617.125 282.84375 C 618.32199 282.82875 619.51639 282.82775 620.6875 282.84375 C 656.99174 283.21835 680.76021 296.81475 685.90625 332.09375 A 332.35082 332.35082 0 0 1 686.625 352.375 C 685.6426 362.6273 682.24928 368.97645 677.40625 372.65625 L 677.40625 372.6875 C 667.48198 380.228 651.48486 376.59945 637.84375 372.65625 L 433.59375 313.625 L 587 285.5 C 597.75843 283.8861 607.82155 282.96175 617.125 282.84375 z M 399.6875 322 L 555.25 366.90625 C 617.07646 386.54685 677.09358 402.5413 675.25 439.125 A 332.35082 332.35082 0 0 1 549.53125 622.8125 L 407.8125 359.25 L 398.46875 356.53125 A 44.257277 44.257277 0 0 0 398.59375 354.34375 A 44.257277 44.257277 0 0 0 392.21875 331.5625 L 392.84375 332 L 399.6875 322 z M 354.34375 340.15625 C 362.16641 340.15625 368.49293 346.48985 368.5 354.3125 L 368.5 354.34375 C 368.5 362.17141 362.17141 368.5 354.34375 368.5 C 346.51609 368.5 340.15625 362.17141 340.15625 354.34375 C 340.15625 346.51609 346.51609 340.15625 354.34375 340.15625 z M 387.53125 383.5625 L 387.40625 383.9375 L 399.03125 387.34375 L 404.375 549.1875 C 404.80871 615.2241 408.27394 678.30885 370.84375 686.09375 A 332.35082 332.35082 0 0 1 354.34375 686.6875 A 332.35082 332.35082 0 0 1 159.71875 623.34375 L 366.53125 407.15625 L 366.25 396.9375 A 44.257277 44.257277 0 0 0 387.53125 383.5625 z M 417.5 417 L 491.59375 554.1875 C 516.64831 604.3705 518.9169 642.9826 476.9375 663.125 A 332.35082 332.35082 0 0 1 457.0625 669.96875 C 447.91976 671.69035 441.36075 670.3914 436.65625 667.125 C 426.41804 660.0166 424.90311 643.6918 424.4375 629.5 L 417.5 417 z M 314.59375 434.21875 L 207.03125 547.09375 C 167.94055 585.55015 132.64324 599.83895 101.0625 568.96875 A 332.35082 332.35082 0 0 1 86.4375 550.34375 C 81.813848 542.02915 80.98128 535.27605 82.65625 529.71875 C 86.252952 517.78505 101.30294 511.3283 114.65625 506.5 C 114.66525 506.49 114.6765 506.49 114.6875 506.5 L 314.59375 434.21875 z "
       transform="translate(15.214486,781.34334)"
       id="path3055" />
    <path
       id="path3847"
       d="m 369.55824,1517.3282 a 353.74392,353.74392 0 0 0 -353.750004,353.75 353.74392,353.74392 0 0 0 353.750004,353.7187 353.74392,353.74392 0 0 0 353.71875,-353.7187 353.74392,353.74392 0 0 0 -353.71875,-353.75 z m -0.65625,21.4062 -40.34375,297.1875 6.125,7.9688 a 44.257277,44.257277 0 0 0 -9.1875,22.8125 l -11.21875,4.0312 -99.4375,-127.8125 c -40.26959,-54.6676 -81.31546,-104.9297 -51.03125,-132.8125 a 332.35082,332.35082 0 0 1 205.09375,-71.375 z m 68,9.4375 c 5.11944,-0.062 10.60141,0.4957 16.5,1.7188 a 332.35082,332.35082 0 0 1 8.96875,2.2812 c 14.32514,4.3958 21.342,10.6668 23.8125,17.75 4.10473,11.7687 -4.28523,25.8386 -12.25,37.5938 l -119.25,176 20.65625,-154.5625 c 8.20263,-49.1819 25.62333,-80.3485 61.5625,-80.7813 z m 100.28125,42.2813 c 5.6161,-0.1332 11.20988,1.2797 16.84375,4.5625 l 0.25,-0.031 a 332.35082,332.35082 0 0 1 130.9375,173.4063 l -294.3125,53.3125 -5.53125,8.0937 a 44.257277,44.257277 0 0 0 -15.8125,-3 44.257277,44.257277 0 0 0 -10.09375,1.2188 l 0.0937,-0.062 -7.40625,-9.5938 90.8125,-134.0625 c 33.52965,-46.7929 63.89182,-93.1243 94.21875,-93.8437 z m -417.78125,76.0312 c 12.46114,-0.2671 23.25013,12.0425 31.96875,23.25 0.004,0.01 -0.004,0.026 0,0.031 l 130.53125,167.7812 -140.59375,-67.4062 c -49.958775,-25.9722 -74.445453,-56.0352 -51.875004,-97.25 a 332.35082,332.35082 0 0 1 4.9375,-8.0938 c 8.904704,-13.1258 17.300094,-18.1468 25.031254,-18.3125 z m -65.750004,101.9688 270.031254,130.1562 8.9375,-3.2187 a 44.257277,44.257277 0 0 0 20.40625,16.6875 l -1.03125,0.031 0.34375,12.125 -152.28125,55.0938 c -63.54079,21.1081 -123.242614,44.2101 -141.343754,8.9687 a 332.35082,332.35082 0 0 1 -21.53125,-117.2187 332.35082,332.35082 0 0 1 16.46875,-102.625 z m 578.687504,31.125 c 1.19699,-0.015 2.39139,-0.016 3.5625,0 36.30424,0.3746 60.07271,13.971 65.21875,49.25 a 332.35082,332.35082 0 0 1 0.71875,20.2812 c -0.9824,10.2523 -4.37572,16.6015 -9.21875,20.2813 l 0,0.031 c -9.92427,7.5405 -25.92139,3.912 -39.5625,-0.031 l -204.25,-59.0313 153.40625,-28.125 c 10.75843,-1.6139 20.82155,-2.5382 30.125,-2.6562 z m -217.4375,39.1562 155.5625,44.9063 c 61.82646,19.6406 121.84358,35.635 120,72.2187 a 332.35082,332.35082 0 0 1 -125.71875,183.6875 l -141.71875,-263.5625 -9.34375,-2.7187 a 44.257277,44.257277 0 0 0 0.125,-2.1875 44.257277,44.257277 0 0 0 -6.375,-22.7813 l 0.625,0.4375 6.84375,-10 z m -45.34375,18.1563 c 7.82266,0 14.14918,6.3336 14.15625,14.1562 l 0,0.031 c 0,7.8276 -6.32859,14.1562 -14.15625,14.1562 -7.82766,0 -14.1875,-6.3286 -14.1875,-14.1562 0,-7.8277 6.35984,-14.1875 14.1875,-14.1875 z m 33.1875,43.4062 -0.125,0.375 11.625,3.4063 5.34375,161.8437 c 0.43371,66.0366 3.89894,129.1214 -33.53125,136.9063 a 332.35082,332.35082 0 0 1 -16.5,0.5937 332.35082,332.35082 0 0 1 -194.625,-63.3437 l 206.8125,-216.1875 -0.28125,-10.2188 a 44.257277,44.257277 0 0 0 21.28125,-13.375 z m 29.96875,33.4375 74.09375,137.1875 c 25.05456,50.183 27.32315,88.7951 -14.65625,108.9375 a 332.35082,332.35082 0 0 1 -19.875,6.8438 c -9.14274,1.7216 -15.70175,0.4226 -20.40625,-2.8438 -10.23821,-7.1084 -11.75314,-23.4332 -12.21875,-37.625 l -6.9375,-212.5 z m -102.90625,17.2188 -107.5625,112.875 c -39.0907,38.4564 -74.38801,52.7452 -105.96875,21.875 a 332.35082,332.35082 0 0 1 -14.625,-18.625 c -4.623656,-8.3146 -5.456224,-15.0677 -3.781254,-20.625 3.596704,-11.9337 18.646694,-18.3905 32.000004,-23.2188 0.009,-0.01 0.0202,-0.01 0.0312,0 l 199.90625,-72.2812 z"
       style="fill:none;fill-opacity:1;fill-rule:evenodd;stroke:#0000ff;stroke-width:0.01;stroke-linecap:butt;stroke-linejoin:miter;stroke-miterlimit:4;stroke-opacity:1;stroke-dasharray:none"
       inkscape:connector-curvature="0" />
  </g>
</svg>
