<?xml version="1.0" encoding="UTF-8" standalone="no"?>
<!-- Created with Inkscape (http://www.inkscape.org/) -->

<svg
   xmlns:dc="http://purl.org/dc/elements/1.1/"
   xmlns:cc="http://creativecommons.org/ns#"
   xmlns:rdf="http://www.w3.org/1999/02/22-rdf-syntax-ns#"
   xmlns:svg="http://www.w3.org/2000/svg"
   xmlns="http://www.w3.org/2000/svg"
   xmlns:sodipodi="http://sodipodi.sourceforge.net/DTD/sodipodi-0.dtd"
   xmlns:inkscape="http://www.inkscape.org/namespaces/inkscape"
   width="216.18851mm"
   height="630.59052mm"
   viewBox="0 0 766.02227 2234.3758"
   id="svg2"
   version="1.1"
   inkscape:version="0.91 r13725"
   sodipodi:docname="roue.svg">
  <defs
     id="defs4" />
  <sodipodi:namedview
     id="base"
     pagecolor="#ffffff"
     bordercolor="#666666"
     borderopacity="1.0"
     inkscape:pageopacity="0.0"
     inkscape:pageshadow="2"
     inkscape:zoom="0.35"
     inkscape:cx="505.4033"
     inkscape:cy="869.19204"
     inkscape:document-units="px"
     inkscape:current-layer="layer1"
     showgrid="false"
     inkscape:snap-object-midpoints="true"
     inkscape:window-width="1280"
     inkscape:window-height="962"
     inkscape:window-x="1272"
     inkscape:window-y="-8"
     inkscape:window-maximized="1"
     inkscape:object-nodes="true"
     inkscape:snap-intersection-paths="true"
     inkscape:snap-nodes="true"
     inkscape:snap-others="false"
     inkscape:snap-global="true"
     inkscape:object-paths="false"
     fit-margin-top="0"
     fit-margin-left="0"
     fit-margin-right="0"
     fit-margin-bottom="0" />
  <metadata
     id="metadata7">
    <rdf:RDF>
      <cc:Work
         rdf:about="">
        <dc:format>image/svg+xml</dc:format>
        <dc:type
           rdf:resource="http://purl.org/dc/dcmitype/StillImage" />
        <dc:title></dc:title>
      </cc:Work>
    </rdf:RDF>
  </metadata>
  <g
     inkscape:label="Calque 1"
     inkscape:groupmode="layer"
     id="layer1"
     transform="translate(42.14596,-15.629346)">
    <circle
       style="fill:#552200;fill-rule:evenodd;stroke:#000000;stroke-width:1.17355812px;stroke-linecap:butt;stroke-linejoin:miter;stroke-opacity:1"
       id="path3336"
       cx="369.54501"
       cy="369.96005"
       r="353.74393" />
    <circle
       r="332.35083"
       cy="369.96005"
       cx="369.54501"
       id="circle3338"
       style="fill:#ffe6d5;fill-rule:evenodd;stroke:#000000;stroke-width:1.10258579px;stroke-linecap:butt;stroke-linejoin:miter;stroke-opacity:1" />
    <circle
       style="fill:#552200;fill-rule:evenodd;stroke:#000000;stroke-width:0.14682512px;stroke-linecap:butt;stroke-linejoin:miter;stroke-opacity:1"
       id="circle3340"
       cx="369.54501"
       cy="369.96005"
       r="44.257278" />
    <g
       id="g3374">
      <path
         inkscape:connector-curvature="0"
         id="path3342"
         d="m 369.54501,369.96005 0,-345.933136"
         style="fill:none;fill-rule:evenodd;stroke:#b3b3b3;stroke-width:1px;stroke-linecap:butt;stroke-linejoin:miter;stroke-opacity:1" />
      <path
         style="fill:none;fill-rule:evenodd;stroke:#b3b3b3;stroke-width:1px;stroke-linecap:butt;stroke-linejoin:miter;stroke-opacity:1"
         d="M 369.54501,369.96005 40.543045,263.06083"
         id="path3344"
         inkscape:connector-curvature="0" />
      <path
         inkscape:connector-curvature="0"
         id="path3346"
         d="M 369.54501,369.96005 166.21061,649.82583"
         style="fill:none;fill-rule:evenodd;stroke:#b3b3b3;stroke-width:1px;stroke-linecap:butt;stroke-linejoin:miter;stroke-opacity:1" />
      <path
         style="fill:none;fill-rule:evenodd;stroke:#b3b3b3;stroke-width:1px;stroke-linecap:butt;stroke-linejoin:miter;stroke-opacity:1"
         d="M 369.54501,369.96005 572.87939,649.82583"
         id="path3348"
         inkscape:connector-curvature="0" />
      <path
         inkscape:connector-curvature="0"
         id="path3350"
         d="M 369.54501,369.96005 698.54697,263.06085"
         style="fill:none;fill-rule:evenodd;stroke:#b3b3b3;stroke-width:1px;stroke-linecap:butt;stroke-linejoin:miter;stroke-opacity:1" />
    </g>
    <path
       style="fill:none;fill-rule:evenodd;stroke:#000000;stroke-width:1px;stroke-linecap:butt;stroke-linejoin:miter;stroke-opacity:1"
       d="M 369.21076,37.158896 320.72343,396.26813"
       id="path3364"
       inkscape:connector-curvature="0" />
    <path
       style="fill:none;fill-rule:evenodd;stroke:#000000;stroke-width:1px;stroke-linecap:butt;stroke-linejoin:miter;stroke-opacity:1"
       d="M 53.460567,267.25807 377.85714,423.43363"
       id="path3366"
       inkscape:connector-curvature="0" />
    <path
       style="fill:none;fill-rule:evenodd;stroke:#000000;stroke-width:1px;stroke-linecap:butt;stroke-linejoin:miter;stroke-opacity:1"
       d="M 174.19412,638.83754 425.27422,376.06508"
       id="path3368"
       inkscape:connector-curvature="0" />
    <path
       style="fill:none;fill-rule:evenodd;stroke:#000000;stroke-width:1px;stroke-linecap:butt;stroke-linejoin:miter;stroke-opacity:1"
       d="M 564.89589,638.83755 396.98995,328.08283"
       id="path3370"
       inkscape:connector-curvature="0" />
    <path
       style="fill:none;fill-rule:evenodd;stroke:#000000;stroke-width:1px;stroke-linecap:butt;stroke-linejoin:miter;stroke-opacity:1"
       d="M 685.62946,267.25808 335.37065,331.11329"
       id="path3372"
       inkscape:connector-curvature="0" />
    <g
       id="g3381"
       style="stroke:#ffaaaa"
       transform="matrix(0.8941599,0.44774778,-0.44774778,0.8941599,204.64365,-126.47458)">
      <path
         style="fill:none;fill-rule:evenodd;stroke:#ffaaaa;stroke-width:1px;stroke-linecap:butt;stroke-linejoin:miter;stroke-opacity:1"
         d="m 369.54501,369.96005 0,-345.933136"
         id="path3383"
         inkscape:connector-curvature="0" />
      <path
         inkscape:connector-curvature="0"
         id="path3385"
         d="M 369.54501,369.96005 40.543045,263.06083"
         style="fill:none;fill-rule:evenodd;stroke:#ffaaaa;stroke-width:1px;stroke-linecap:butt;stroke-linejoin:miter;stroke-opacity:1" />
      <path
         style="fill:none;fill-rule:evenodd;stroke:#ffaaaa;stroke-width:1px;stroke-linecap:butt;stroke-linejoin:miter;stroke-opacity:1"
         d="M 369.54501,369.96005 166.21061,649.82583"
         id="path3387"
         inkscape:connector-curvature="0" />
      <path
         inkscape:connector-curvature="0"
         id="path3389"
         d="M 369.54501,369.96005 572.87939,649.82583"
         style="fill:none;fill-rule:evenodd;stroke:#ffaaaa;stroke-width:1px;stroke-linecap:butt;stroke-linejoin:miter;stroke-opacity:1" />
      <path
         style="fill:none;fill-rule:evenodd;stroke:#ffaaaa;stroke-width:1px;stroke-linecap:butt;stroke-linejoin:miter;stroke-opacity:1"
         d="M 369.54501,369.96005 698.54697,263.06085"
         id="path3391"
         inkscape:connector-curvature="0" />
    </g>
    <path
       style="fill:none;fill-rule:evenodd;stroke:#000000;stroke-width:1px;stroke-linecap:butt;stroke-linejoin:miter;stroke-opacity:1"
       d="M 132.92559,136.57556 330.1597,390.14678"
       id="path3393"
       inkscape:connector-curvature="0" />
    <path
       style="fill:none;fill-rule:evenodd;stroke:#000000;stroke-width:1px;stroke-linecap:butt;stroke-linejoin:miter;stroke-opacity:1"
       d="M 518.19272,72.704382 338.05831,338.8587"
       id="path3395"
       inkscape:connector-curvature="0" />
    <path
       style="fill:none;fill-rule:evenodd;stroke:#000000;stroke-width:1px;stroke-linecap:butt;stroke-linejoin:miter;stroke-opacity:1"
       d="M 698.18184,419.5071 389.19937,330.30639"
       id="path3397"
       inkscape:connector-curvature="0" />
    <path
       style="fill:none;fill-rule:evenodd;stroke:#000000;stroke-width:1px;stroke-linecap:butt;stroke-linejoin:miter;stroke-opacity:1"
       d="M 423.74303,697.86194 413.32675,376.43044"
       id="path3399"
       inkscape:connector-curvature="0" />
    <path
       style="fill:none;fill-rule:evenodd;stroke:#000000;stroke-width:1px;stroke-linecap:butt;stroke-linejoin:miter;stroke-opacity:1"
       d="M 74.387129,522.73079 376.68633,413.63737"
       id="path3401"
       inkscape:connector-curvature="0" />
    <rect
       style="fill:#ffffff;stroke:#00ffff;stroke-width:0.87012684"
       id="rect3431"
       width="29.415588"
       height="12.646136"
       x="503.59677"
       y="44.915749"
       transform="matrix(0.8259044,0.56381019,-0.56381019,0.8259044,0,0)" />
    <rect
       transform="matrix(0.79143385,-0.61125483,0.61125483,0.79143385,0,0)"
       y="466.35202"
       x="55.361671"
       height="12.646136"
       width="29.415588"
       id="rect3435"
       style="fill:#ffffff;stroke:#00ffff;stroke-width:0.87012684" />
    <rect
       style="fill:#ffffff;stroke:#00ffff;stroke-width:0.87012684"
       id="rect3437"
       width="29.415588"
       height="12.646136"
       x="-483.28165"
       y="170.90977"
       transform="matrix(-0.33677138,-0.94158645,0.94158645,-0.33677138,0,0)" />
    <rect
       transform="matrix(-0.99957001,0.0293224,-0.0293224,-0.99957001,0,0)"
       y="-433.26724"
       x="-369.19739"
       height="12.646136"
       width="29.415588"
       id="rect3439"
       style="fill:#ffffff;stroke:#00ffff;stroke-width:0.87012684" />
    <rect
       style="fill:#ffffff;stroke:#00ffff;stroke-width:0.87012684"
       id="rect3441"
       width="29.415588"
       height="12.646136"
       x="240.90959"
       y="-510.78943"
       transform="matrix(-0.28099686,0.95970869,-0.95970869,-0.28099686,0,0)" />
    <g
       id="g3447"
       transform="translate(55.123092,31.719628)">
      <path
         style="fill:none;fill-rule:evenodd;stroke:#000000;stroke-width:1px;stroke-linecap:butt;stroke-linejoin:miter;stroke-opacity:1"
         d="M -97.052162,169.27327 227.34441,325.44883"
         id="path3443"
         inkscape:connector-curvature="0" />
      <path
         style="fill:none;fill-rule:evenodd;stroke:#000000;stroke-width:1px;stroke-linecap:butt;stroke-linejoin:miter;stroke-opacity:1"
         d="M 30.110301,71.877612 227.34441,325.44883"
         id="path3445"
         inkscape:connector-curvature="0" />
    </g>
    <path
       style="fill:none;fill-rule:evenodd;stroke:#000000;stroke-width:1px;stroke-linecap:butt;stroke-linejoin:miter;stroke-opacity:1"
       d="M 215.6121,242.8803 C 174.89898,187.5354 132.92559,136.57556 164.25094,108.59552"
       id="path3451"
       inkscape:connector-curvature="0"
       sodipodi:nodetypes="cc" />
    <path
       style="fill:none;fill-rule:evenodd;stroke:#000000;stroke-width:1px;stroke-linecap:butt;stroke-linejoin:miter;stroke-opacity:1"
       d="m 151.38595,188.64533 c -14.68745,-18.88271 -35.29654,-40.93765 -59.777251,-0.64114 -27.777406,45.72304 1.263023,77.8864 59.068911,105.71613 l -107.718202,-39.15044 41.41625,-74.75129 40.406102,-43.43656 34.34519,47.47717 z"
       id="path4350"
       inkscape:connector-curvature="0"
       sodipodi:nodetypes="cscccccc" />
    <circle
       r="353.74393"
       cy="1134.2457"
       cx="369.54501"
       id="circle4352"
       style="fill:#552200;fill-rule:evenodd;stroke:#000000;stroke-width:1.17355812px;stroke-linecap:butt;stroke-linejoin:miter;stroke-opacity:1" />
    <circle
       style="fill:#ffe6d5;fill-rule:evenodd;stroke:#000000;stroke-width:1.10258579px;stroke-linecap:butt;stroke-linejoin:miter;stroke-opacity:1"
       id="circle4354"
       cx="369.54501"
       cy="1134.2457"
       r="332.35083" />
    <circle
       r="44.257278"
       cy="1134.2457"
       cx="369.54501"
       id="circle4356"
       style="fill:#552200;fill-rule:evenodd;stroke:#000000;stroke-width:0.14682512px;stroke-linecap:butt;stroke-linejoin:miter;stroke-opacity:1" />
    <g
       id="g4358"
       transform="translate(0,764.28571)">
      <path
         style="fill:none;fill-rule:evenodd;stroke:#b3b3b3;stroke-width:1px;stroke-linecap:butt;stroke-linejoin:miter;stroke-opacity:1"
         d="m 369.54501,369.96005 0,-345.933136"
         id="path4360"
         inkscape:connector-curvature="0" />
      <path
         inkscape:connector-curvature="0"
         id="path4362"
         d="M 369.54501,369.96005 40.543045,263.06083"
         style="fill:none;fill-rule:evenodd;stroke:#b3b3b3;stroke-width:1px;stroke-linecap:butt;stroke-linejoin:miter;stroke-opacity:1" />
      <path
         style="fill:none;fill-rule:evenodd;stroke:#b3b3b3;stroke-width:1px;stroke-linecap:butt;stroke-linejoin:miter;stroke-opacity:1"
         d="M 369.54501,369.96005 166.21061,649.82583"
         id="path4364"
         inkscape:connector-curvature="0" />
      <path
         inkscape:connector-curvature="0"
         id="path4366"
         d="M 369.54501,369.96005 572.87939,649.82583"
         style="fill:none;fill-rule:evenodd;stroke:#b3b3b3;stroke-width:1px;stroke-linecap:butt;stroke-linejoin:miter;stroke-opacity:1" />
      <path
         style="fill:none;fill-rule:evenodd;stroke:#b3b3b3;stroke-width:1px;stroke-linecap:butt;stroke-linejoin:miter;stroke-opacity:1"
         d="M 369.54501,369.96005 698.54697,263.06085"
         id="path4368"
         inkscape:connector-curvature="0" />
    </g>
    <path
       inkscape:connector-curvature="0"
       id="path4370"
       d="M 369.21076,801.44461 320.72343,1160.5538"
       style="fill:none;fill-rule:evenodd;stroke:#000000;stroke-width:1px;stroke-linecap:butt;stroke-linejoin:miter;stroke-opacity:1" />
    <path
       inkscape:connector-curvature="0"
       id="path4372"
       d="M 53.460567,1031.5438 377.85714,1187.7193"
       style="fill:none;fill-rule:evenodd;stroke:#000000;stroke-width:1px;stroke-linecap:butt;stroke-linejoin:miter;stroke-opacity:1" />
    <path
       inkscape:connector-curvature="0"
       id="path4374"
       d="m 174.19412,1403.1233 251.0801,-262.7725"
       style="fill:none;fill-rule:evenodd;stroke:#000000;stroke-width:1px;stroke-linecap:butt;stroke-linejoin:miter;stroke-opacity:1" />
    <path
       inkscape:connector-curvature="0"
       id="path4376"
       d="M 564.89589,1403.1233 396.98995,1092.3685"
       style="fill:none;fill-rule:evenodd;stroke:#000000;stroke-width:1px;stroke-linecap:butt;stroke-linejoin:miter;stroke-opacity:1" />
    <path
       inkscape:connector-curvature="0"
       id="path4378"
       d="M 685.62946,1031.5438 335.37065,1095.399"
       style="fill:none;fill-rule:evenodd;stroke:#000000;stroke-width:1px;stroke-linecap:butt;stroke-linejoin:miter;stroke-opacity:1" />
    <g
       transform="matrix(0.8941599,0.44774778,-0.44774778,0.8941599,204.64365,637.81113)"
       style="stroke:#ffaaaa"
       id="g4380">
      <path
         inkscape:connector-curvature="0"
         id="path4382"
         d="m 369.54501,369.96005 0,-345.933136"
         style="fill:none;fill-rule:evenodd;stroke:#ffaaaa;stroke-width:1px;stroke-linecap:butt;stroke-linejoin:miter;stroke-opacity:1" />
      <path
         style="fill:none;fill-rule:evenodd;stroke:#ffaaaa;stroke-width:1px;stroke-linecap:butt;stroke-linejoin:miter;stroke-opacity:1"
         d="M 369.54501,369.96005 40.543045,263.06083"
         id="path4384"
         inkscape:connector-curvature="0" />
      <path
         inkscape:connector-curvature="0"
         id="path4386"
         d="M 369.54501,369.96005 166.21061,649.82583"
         style="fill:none;fill-rule:evenodd;stroke:#ffaaaa;stroke-width:1px;stroke-linecap:butt;stroke-linejoin:miter;stroke-opacity:1" />
      <path
         style="fill:none;fill-rule:evenodd;stroke:#ffaaaa;stroke-width:1px;stroke-linecap:butt;stroke-linejoin:miter;stroke-opacity:1"
         d="M 369.54501,369.96005 572.87939,649.82583"
         id="path4388"
         inkscape:connector-curvature="0" />
      <path
         inkscape:connector-curvature="0"
         id="path4390"
         d="M 369.54501,369.96005 698.54697,263.06085"
         style="fill:none;fill-rule:evenodd;stroke:#ffaaaa;stroke-width:1px;stroke-linecap:butt;stroke-linejoin:miter;stroke-opacity:1" />
    </g>
    <path
       inkscape:connector-curvature="0"
       id="path4392"
       d="M 132.92559,900.86127 330.1597,1154.4325"
       style="fill:none;fill-rule:evenodd;stroke:#000000;stroke-width:1px;stroke-linecap:butt;stroke-linejoin:miter;stroke-opacity:1" />
    <path
       inkscape:connector-curvature="0"
       id="path4394"
       d="M 518.19272,836.9901 338.05831,1103.1444"
       style="fill:none;fill-rule:evenodd;stroke:#000000;stroke-width:1px;stroke-linecap:butt;stroke-linejoin:miter;stroke-opacity:1" />
    <path
       inkscape:connector-curvature="0"
       id="path4396"
       d="M 698.18184,1183.7928 389.19937,1094.5921"
       style="fill:none;fill-rule:evenodd;stroke:#000000;stroke-width:1px;stroke-linecap:butt;stroke-linejoin:miter;stroke-opacity:1" />
    <path
       inkscape:connector-curvature="0"
       id="path4398"
       d="M 423.74303,1462.1477 413.32675,1140.7162"
       style="fill:none;fill-rule:evenodd;stroke:#000000;stroke-width:1px;stroke-linecap:butt;stroke-linejoin:miter;stroke-opacity:1" />
    <path
       inkscape:connector-curvature="0"
       id="path4400"
       d="M 74.387129,1287.0165 376.68633,1177.9231"
       style="fill:none;fill-rule:evenodd;stroke:#000000;stroke-width:1px;stroke-linecap:butt;stroke-linejoin:miter;stroke-opacity:1" />
    <rect
       transform="matrix(0.8259044,0.56381019,-0.56381019,0.8259044,0,0)"
       y="676.1427"
       x="934.50885"
       height="12.646136"
       width="29.415588"
       id="rect4402"
       style="fill:#ffffff;stroke:#00ffff;stroke-width:0.87012684" />
    <rect
       style="fill:#ffffff;stroke:#00ffff;stroke-width:0.87012684"
       id="rect4404"
       width="29.415588"
       height="12.646136"
       x="-411.81168"
       y="1071.2336"
       transform="matrix(0.79143385,-0.61125483,0.61125483,0.79143385,0,0)" />
    <rect
       transform="matrix(-0.33677138,-0.94158645,0.94158645,-0.33677138,0,0)"
       y="-86.479782"
       x="-1202.9227"
       height="12.646136"
       width="29.415588"
       id="rect4406"
       style="fill:#ffffff;stroke:#00ffff;stroke-width:0.87012684" />
    <rect
       style="fill:#ffffff;stroke:#00ffff;stroke-width:0.87012684"
       id="rect4408"
       width="29.415588"
       height="12.646136"
       x="-346.78671"
       y="-1197.2244"
       transform="matrix(-0.99957001,0.0293224,-0.0293224,-0.99957001,0,0)" />
    <rect
       transform="matrix(-0.28099686,0.95970869,-0.95970869,-0.28099686,0,0)"
       y="-725.55133"
       x="974.40125"
       height="12.646136"
       width="29.415588"
       id="rect4410"
       style="fill:#ffffff;stroke:#00ffff;stroke-width:0.87012684" />
    <path
       style="fill:#ffff00;fill-rule:evenodd;stroke:#000000;stroke-width:1px;stroke-linecap:butt;stroke-linejoin:miter;stroke-opacity:1"
       d="m 53.460568,1031.5438 19.41324,-72.52726 43.928572,-63.92857 16.12321,5.7733 181.35263,233.04123 11.40462,-4.0791 9.90635,27.6974 -11.90743,4.2588 z"
       id="path4422"
       inkscape:connector-curvature="0" />
    <g
       transform="translate(55.123092,796.00534)"
       id="g4412">
      <path
         inkscape:connector-curvature="0"
         id="path4414"
         d="M -97.052162,169.27327 227.34441,325.44883"
         style="fill:none;fill-rule:evenodd;stroke:#000000;stroke-width:1px;stroke-linecap:butt;stroke-linejoin:miter;stroke-opacity:1" />
      <path
         inkscape:connector-curvature="0"
         id="path4416"
         d="M 30.110301,71.877612 227.34441,325.44883"
         style="fill:none;fill-rule:evenodd;stroke:#000000;stroke-width:1px;stroke-linecap:butt;stroke-linejoin:miter;stroke-opacity:1" />
    </g>
    <path
       sodipodi:nodetypes="cc"
       inkscape:connector-curvature="0"
       id="path4418"
       d="M 215.6121,1007.166 C 174.89898,951.82111 132.92559,900.86127 164.25094,872.88123 l 0.93692,-11.71475 -50.00255,32.82996 91.41881,117.17766 z"
       style="fill:#00ffff;fill-rule:evenodd;stroke:#000000;stroke-width:1px;stroke-linecap:butt;stroke-linejoin:miter;stroke-opacity:1" />
    <path
       style="fill:#00ff00;fill-rule:evenodd;stroke:#000000;stroke-width:1px;stroke-linecap:butt;stroke-linejoin:miter;stroke-opacity:1"
       d="M 84.375658,944.1043 114.93114,906.06344 281.90988,1120.7372 44.362538,1006.8223 64.579458,954.99514 Z"
       id="path4424"
       inkscape:connector-curvature="0" />
    <path
       sodipodi:nodetypes="cscccccc"
       inkscape:connector-curvature="0"
       id="path4420"
       d="m 151.38595,952.93104 c -14.68745,-18.88271 -35.29654,-40.93765 -59.777251,-0.64114 -27.777406,45.72304 1.263023,77.8864 59.068911,105.7161 l -107.718202,-39.1504 41.41625,-74.7513 40.406102,-43.43656 34.34519,47.47717 z"
       style="fill:#ff0000;fill-rule:evenodd;stroke:#000000;stroke-width:1px;stroke-linecap:butt;stroke-linejoin:miter;stroke-opacity:1" />
    <path
       style="fill:#552200;fill-rule:evenodd;stroke:#000000;stroke-width:1.17355812px;stroke-linecap:butt;stroke-linejoin:miter;stroke-opacity:1"
       d="M 448.81445,1526.3008 A 353.74393,353.74393 0 0 0 95.070312,1880.0449 353.74393,353.74393 0 0 0 448.81445,2233.7891 353.74393,353.74393 0 0 0 802.55859,1880.0449 353.74393,353.74393 0 0 0 448.81445,1526.3008 Z m -0.64453,21.416 -40.35156,297.1934 6.13867,7.9492 a 44.257278,44.257278 0 0 0 -9.18359,22.8261 l -11.22656,4.0157 -99.44922,-127.793 c -40.26959,-54.6676 -81.29398,-104.9395 -51.00977,-132.8223 a 332.35083,332.35083 0 0 1 205.08203,-71.3691 z m 67.9961,9.4277 c 5.11944,-0.062 10.61703,0.5054 16.51562,1.7285 a 332.35083,332.35083 0 0 1 8.97266,2.2911 c 14.32514,4.3958 21.32637,10.6394 23.79687,17.7226 4.10473,11.7687 -4.27351,25.8503 -12.23828,37.6055 -0.004,0.01 -0.008,0.011 -0.0117,0.016 L 433.94141,1792.5 454.61914,1637.9434 c 8.20263,-49.1819 25.60771,-80.3661 61.54688,-80.7989 z m 100.27929,42.2813 c 5.6161,-0.1332 11.23137,1.2973 16.86524,4.5801 l 0.23633,-0.057 a 332.35083,332.35083 0 0 1 130.92578,173.4102 l -294.30469,53.3144 -5.52539,8.0938 a 44.257278,44.257278 0 0 0 -15.82813,-2.9805 44.257278,44.257278 0 0 0 -10.07226,1.2168 l 0.0859,-0.066 -7.40429,-9.5859 90.80664,-134.0723 c 33.52965,-46.7929 63.88791,-93.1341 94.21484,-93.8535 z m -417.78515,76.0293 c 12.46114,-0.2671 23.2638,12.0522 31.98242,23.2597 0.004,0.01 0.008,0.011 0.0117,0.016 l 130.52539,167.8066 -140.60352,-67.4258 c -49.95877,-25.9722 -74.45717,-56.0137 -51.88672,-97.2285 a 332.35083,332.35083 0 0 1 4.96289,-8.0957 c 8.9047,-13.1258 17.27666,-18.1663 25.00782,-18.332 z m -65.74805,101.9765 270.03906,130.1465 8.92774,-3.1933 a 44.257278,44.257278 0 0 0 20.40429,16.6816 l -1.02929,0.029 0.35547,12.1074 -152.26954,55.0918 c -63.54079,21.1081 -123.24651,44.2375 -141.34765,8.9961 a 332.35083,332.35083 0 0 1 -21.5293,-117.2461 332.35083,332.35083 0 0 1 16.44922,-102.6133 z m 582.25,31.1231 c 36.30424,0.3746 60.0688,13.9847 65.21484,49.2637 a 332.35083,332.35083 0 0 1 0.71875,20.2714 c -0.9824,10.2523 -4.36986,16.6113 -9.21289,20.2911 l 0,0.01 c -9.92427,7.5405 -25.90576,3.9232 -39.54687,-0.02 -0.0107,-7e-4 -0.0137,2e-4 -0.0195,-0.01 l -204.23047,-59.0371 153.38281,-28.0976 c 10.75843,-1.6139 20.83718,-2.5461 30.14063,-2.6641 1.19699,-0.015 2.38162,-0.016 3.55273,0 z m -221,39.1445 155.57031,44.9317 c 61.82646,19.6406 121.85725,35.6292 120.01367,72.2129 a 332.35083,332.35083 0 0 1 -125.72851,183.6855 l -141.72266,-263.5605 -9.33398,-2.7344 a 44.257278,44.257278 0 0 0 0.11133,-2.1895 44.257278,44.257278 0 0 0 -6.36329,-22.7695 l 0.625,0.4258 6.82813,-10.002 z m -12.15625,61.5625 -0.11133,0.3828 11.62305,3.4043 5.3418,161.8418 c 0.43371,66.0366 3.89308,129.137 -33.53711,136.9219 a 332.35083,332.35083 0 0 1 -16.50782,0.584 332.35083,332.35083 0 0 1 -194.61328,-63.334 l 206.82617,-216.1895 -0.29882,-10.2089 a 44.257278,44.257278 0 0 0 21.27734,-13.4024 z m 29.96484,33.461 74.11719,137.1933 c 25.05456,50.183 27.29776,88.7814 -14.68164,108.9238 a 332.35083,332.35083 0 0 1 -19.85937,6.8497 c -9.14274,1.7216 -15.70566,0.4148 -20.41016,-2.8516 l -0.006,0 c -10.23821,-7.1084 -11.73556,-23.4234 -12.20117,-37.6152 -0.003,-0.01 -0.004,-0.012 0.004,-0.021 l -6.96289,-212.4785 z m -102.88086,17.1992 -107.57422,112.8867 c -39.0907,38.4564 -74.38996,52.7491 -105.9707,21.8789 a 332.35083,332.35083 0 0 1 -14.63672,-18.6289 c -4.62365,-8.3146 -5.4445,-15.0618 -3.76953,-20.6191 l -0.002,0 c 3.5967,-11.9337 18.65059,-18.4002 32.0039,-23.2285 0.009,-0.01 0.0105,-0.01 0.0215,0 l 199.92773,-72.2851 z"
       transform="translate(-79.269052,15.629346)"
       id="circle4426"
       inkscape:connector-curvature="0" />
  </g>
</svg>
